<svg width="1113" height="518" viewBox="0 0 1113 518" fill="none" xmlns="http://www.w3.org/2000/svg">
<g opacity="0.15">
<path d="M0.999614 86.8286C0.999614 86.8286 73.3712 73.3065 92.6056 78.7411C111.687 84.2251 74.2739 98.2665 94.7992 106.001C115.325 113.736 131.066 116.356 193.22 103.687C255.509 91.0611 252.982 88.4597 361.837 68.1242C470.403 47.7944 491.389 42.4032 546.34 54.2494C601.29 66.0955 567.632 94.5286 506.021 130.258C444.562 165.938 402.437 184.398 408.927 195.712C415.552 207.07 445.329 198.482 479.945 197.008C514.848 195.528 536.647 190.4 557.172 198.135C577.697 205.87 606.789 200.923 684.63 188.875C762.471 176.826 806.284 157.03 825.022 168.149C843.914 179.219 856.108 169.396 794.379 212.617C732.785 255.881 720.933 260.068 713.234 282.64" stroke="white" stroke-width="0.635" stroke-miterlimit="10"/>
<path d="M3.54916 86.267C3.54916 86.267 75.3439 72.7563 94.7489 78.048C114.001 83.3892 77.3527 97.1829 97.7602 104.78C116.967 111.89 131.996 114.477 183.951 104.847C187.824 104.119 191.85 103.342 196.028 102.515C258.112 90.2194 255.09 87.9534 362.721 68.0142C470.216 48.0311 491.49 42.6342 545.882 54.3984C555.825 56.5278 562.932 59.2248 567.355 62.44C584.558 74.8452 563.596 94.6087 525.507 118.338C519.495 122.039 513.158 125.931 506.245 129.835C445.434 165.13 403.751 183.535 410.376 194.893C417.001 206.251 446.76 197.757 481.529 196.233C513.972 194.849 535.377 190.286 554.982 196.039C556.201 196.434 557.555 196.872 558.909 197.31C579.605 204.902 609.138 199.901 686.385 187.957C700.139 185.871 712.792 183.528 724.292 181.208C778.36 170.28 810.565 158.714 825.636 167.952C840.064 176.783 849.896 172.636 825.124 191.265C818.253 196.471 809.388 203.111 795.975 212.539C735.299 255.506 723.277 259.837 715.478 282.177" stroke="white" stroke-width="0.635" stroke-miterlimit="10"/>
<path d="M8.57598 85.5165C8.57598 85.5165 80.0823 72.0115 99.5049 77.2098C118.792 82.3642 82.6029 96.0094 103.181 103.464C122.422 110.387 137.605 112.925 189.237 103.486C192.956 102.808 196.982 102.031 201.16 101.204C263.056 89.145 259.523 87.3077 365.947 67.6714C472.371 48.035 493.78 42.682 547.766 54.3146C557.709 56.444 564.681 59.0973 568.968 62.2686C586.036 74.6299 565.397 94.201 527.768 117.782C521.755 121.482 515.572 125.325 508.812 129.18C448.63 164.183 407.406 182.44 414.184 193.748C420.826 205.013 450.551 196.705 485.319 195.181C517.763 193.797 539.167 189.235 558.79 194.894C560.009 195.289 561.228 195.683 562.582 196.122C583.737 203.565 613.44 198.42 690.21 186.718C703.965 184.633 716.6 182.383 728.236 180.107C782.25 169.459 813.709 158.047 828.608 167.428C842.577 176.408 851.68 172.321 828.215 190.878C821.479 196.128 813.65 202.608 800.372 212.08C740.614 254.75 728.439 259.13 720.522 281.334" stroke="white" stroke-width="0.635" stroke-miterlimit="10"/>
<path d="M15.6412 84.6328C15.6412 84.6328 86.5707 71.1392 106.164 76.1946C125.622 81.2061 90.0445 94.6531 110.658 101.921C129.917 108.75 145.27 111.145 196.578 101.9C200.298 101.221 204.459 100.488 208.484 99.7109C270.038 87.9373 266.011 86.4354 371.5 67.1896C476.7 47.9495 498.551 42.5413 552.112 54.1358C561.92 56.2213 568.892 58.8746 573.179 62.0459C590.112 74.3634 569.779 93.8354 532.626 117.174C526.766 120.825 520.447 124.624 513.823 128.523C454.423 163.185 413.505 181.342 420.419 192.695C427.214 203.91 456.768 195.745 491.537 194.221C523.692 192.843 545.232 188.324 565.025 193.841C566.397 194.186 567.616 194.58 568.817 195.068C590.143 202.369 620.152 197.125 696.463 185.572C710.217 183.486 722.988 181.28 734.471 179.054C788.28 168.735 819.279 157.472 833.584 166.957C847.094 176.086 855.485 171.967 833.02 190.551C826.555 195.888 819.491 202.121 806.331 211.73C747.491 254.102 735.01 258.582 726.976 280.648" stroke="white" stroke-width="0.635" stroke-miterlimit="10"/>
<path d="M25.0423 83.5165C25.0423 83.5165 95.5304 70.0782 115.159 74.9468C134.652 79.7715 99.6865 93.0204 120.317 100.195C139.747 106.882 155.118 109.183 206.102 100.13C209.822 99.4515 213.83 98.7677 218.008 97.941C279.357 86.4971 274.835 85.3305 379.1 66.481C483.093 47.5438 505.215 42.2232 558.524 53.6367C568.332 55.7222 575.168 58.3316 579.455 61.5029C596.252 73.7766 576.378 93.1 539.549 116.247C533.689 119.897 527.524 123.647 521.052 127.496C462.435 161.817 421.823 179.875 428.89 191.178C435.838 202.344 465.086 194.278 499.99 192.798C532.01 191.376 553.532 186.951 573.496 192.324C574.868 192.669 575.934 193.113 577.441 193.502C599.99 200.406 629.388 195.361 704.951 183.962C718.706 181.876 731.324 179.72 742.788 177.587C796.256 167.554 826.932 156.483 840.778 166.117C853.982 175.345 861.49 171.337 840.044 189.854C833.85 195.279 827.839 201.258 814.526 210.916C756.604 252.992 744.106 257.564 735.817 279.45" stroke="white" stroke-width="0.635" stroke-miterlimit="10"/>
<path d="M36.1987 82.2736C36.1987 82.2736 106.11 68.8466 125.756 73.6218C145.284 78.2598 111.066 91.3544 131.732 98.3422C151.044 104.892 166.721 107.094 217.229 98.2826C220.948 97.6045 224.956 96.9207 229.117 96.1874C290.26 85.0731 285.397 84.1922 388.438 65.739C491.36 47.1486 513.771 41.8223 566.52 53.1538C576.192 55.1955 583.028 57.8049 587.316 60.9762C603.978 73.206 584.274 92.3865 548.057 115.335C542.35 118.936 536.185 122.686 529.713 126.535C471.879 160.515 431.708 178.518 438.774 189.821C445.876 200.937 475.106 192.964 509.875 191.441C541.741 190.068 563.417 185.593 583.399 190.873C584.77 191.218 585.989 191.613 587.343 192.051C610.369 198.713 639.92 193.618 714.871 182.418C728.626 180.332 741.226 178.269 752.826 176.18C806.241 166.427 836.305 155.554 849.692 165.337C862.437 174.714 869.215 170.766 849.076 189.211C843.017 194.679 838.042 200.499 824.712 210.251C767.861 251.979 755.056 256.651 746.65 278.399" stroke="white" stroke-width="0.635" stroke-miterlimit="10"/>
<path d="M49.2522 80.8528C49.2522 80.8528 118.722 67.481 138.403 72.0695C157.949 76.6141 123.884 89.6592 145.197 96.2621C165.139 102.52 180.527 104.728 230.694 96.2025C234.549 95.5682 238.268 94.8901 242.429 94.1568C303.231 83.3283 298.009 82.8267 399.979 64.7202C501.677 46.5261 524.376 41.1941 576.719 52.394C586.392 54.4357 593.228 57.0451 597.38 60.1726C613.906 72.3586 594.508 91.44 558.768 114.146C553.061 117.748 547.048 121.448 540.73 125.247C483.678 158.886 443.814 176.79 451.033 188.044C458.288 199.11 487.347 191.281 522.116 189.757C553.847 188.34 575.369 183.915 595.657 189.096C597.029 189.441 598.248 189.836 599.602 190.274C623.087 196.788 652.655 191.599 727.283 180.591C741.173 178.549 753.773 176.486 765.22 174.446C818.294 164.98 848.052 154.206 860.98 164.137C873.419 173.613 879.602 169.77 860.193 188.154C854.252 193.76 850.33 199.326 837.135 209.122C781.203 250.553 768.227 255.367 759.721 276.885" stroke="white" stroke-width="0.635" stroke-miterlimit="10"/>
<path d="M63.7633 79.3102C63.7633 79.3102 132.656 65.9498 152.643 70.4393C172.224 74.7972 138.772 87.6441 160.102 94.1536C180.214 100.269 195.62 102.383 245.463 94.0501C249.318 93.4159 253.173 92.7816 257.334 92.0483C318.083 81.4999 312.061 81.4327 412.825 63.6291C513.588 45.8256 536.439 40.444 588.223 51.562C597.76 53.5599 604.596 56.1692 608.613 59.2529C625.004 71.395 605.93 90.284 570.648 112.842C565.095 116.393 559.082 120.094 552.763 123.893C496.494 157.191 456.782 175.046 464.29 186.293C471.545 197.36 500.587 189.624 535.355 188.1C566.934 186.732 588.609 182.258 608.914 187.346C610.286 187.691 611.505 188.085 612.877 188.43C635.597 195.192 666.542 189.557 740.575 178.654C754.312 176.662 767.048 174.643 778.495 172.603C831.228 163.422 860.662 152.84 873.131 162.92C885.111 172.545 890.565 168.763 872.309 187.124C866.639 192.817 863.635 198.086 850.27 208.025C795.119 249.115 782.127 254.023 773.35 275.453" stroke="white" stroke-width="0.635" stroke-miterlimit="10"/>
<path d="M79.8598 77.7837C79.8598 77.7837 148.176 64.4347 168.334 68.7812C188.085 72.9962 155.703 85.4964 176.61 91.9678C196.281 98.1379 212.316 99.961 261.836 91.8205C265.538 91.2357 269.546 90.552 273.554 89.8682C333.961 79.6056 327.581 79.9176 427.273 62.4608C526.812 45.0534 549.952 39.6662 601.33 50.6527C610.867 52.6506 617.567 55.2161 621.584 58.2997C637.84 70.3981 618.936 89.1441 584.267 111.504C578.713 115.055 572.853 118.706 566.535 122.505C510.895 155.512 471.643 173.218 479.303 184.416C486.711 195.433 515.583 187.84 550.351 186.316C581.794 184.905 603.451 180.524 623.927 185.469C625.299 185.814 626.518 186.208 627.89 186.553C650.933 193.122 682.184 187.389 755.606 176.683C769.343 174.691 782.214 172.716 793.491 170.819C846.018 161.968 874.993 151.535 886.868 161.719C898.389 171.493 903.112 167.771 886.027 186.016C880.628 191.797 878.525 196.862 865.295 206.845C811.063 247.638 798.052 252.639 789.022 273.888" stroke="white" stroke-width="0.635" stroke-miterlimit="10"/>
<path d="M97.4101 76.1347C97.4101 76.1347 165.285 62.8409 185.478 67.0007C205.264 71.0289 173.495 83.331 194.419 89.709C214.26 95.7362 230.313 97.466 279.356 89.5674C283.058 88.9826 286.913 88.3484 291.057 87.7084C351.258 77.7755 344.384 78.4229 443.005 61.3128C541.491 44.1588 564.902 38.8593 615.873 49.7142C625.41 51.7121 631.975 54.2338 635.992 57.3174C652.112 69.3719 633.379 87.975 599.321 110.137C593.921 113.639 588.061 117.289 581.895 121.039C527.038 153.705 488.092 171.312 495.888 182.554C503.449 193.521 532.15 186.071 566.936 184.454C598.226 183.092 620.036 178.661 640.53 183.513C641.902 183.858 643.273 184.203 644.492 184.597C667.842 191.067 699.263 185.191 772.226 174.634C785.963 172.642 798.817 170.76 810.093 168.863C862.432 160.248 890.931 150.057 902.499 160.341C913.714 170.213 917.843 166.596 901.624 184.824C896.36 190.649 895.293 195.555 882.045 205.63C828.731 246.126 815.414 251.227 806.419 272.289" stroke="white" stroke-width="0.635" stroke-miterlimit="10"/>
<path d="M115.98 74.4194C115.98 74.4194 183.278 61.137 203.641 65.1539C223.463 68.9954 192.441 81.1431 213.4 87.3343C233.124 93.2244 249.618 94.8989 298.202 87.1489C301.904 86.5642 305.759 85.9299 309.75 85.3395C369.899 75.6867 362.377 76.719 459.774 60.0051C557.171 43.2913 581.023 37.9365 631.435 48.7094C640.837 50.6635 647.402 53.1852 651.419 56.2688C667.403 68.2795 648.977 86.7835 615.26 108.659C609.86 112.161 604.153 115.763 597.852 119.469C543.777 151.793 505.272 169.345 513.086 180.493C520.664 191.367 549.483 184.054 584.116 182.487C615.118 181.131 637.064 176.744 657.728 181.452C659.1 181.797 660.336 182.099 661.843 182.487C685.516 188.765 717.226 182.883 789.73 172.474C803.467 170.482 816.321 168.601 827.715 166.841C879.713 158.512 907.752 148.469 918.997 158.946C929.753 168.966 933.288 165.455 918.104 183.522C913.112 189.435 913.098 194.087 899.679 204.306C847.148 244.461 833.949 249.698 824.701 270.579" stroke="white" stroke-width="0.635" stroke-miterlimit="10"/>
<path d="M135.681 72.7739C135.681 72.7739 202.402 59.5029 222.936 63.3769C242.776 67.125 212.383 78.9812 233.513 85.0295C253.407 90.7767 269.919 92.3578 318.18 84.8003C321.882 84.2155 325.719 83.6747 329.727 82.9909C389.535 73.6239 381.654 75.0354 477.98 58.6682C574.153 42.3507 598.294 36.9902 648.3 47.6316C657.702 49.5857 664.131 52.0635 668.013 55.1033C683.862 67.0701 665.759 85.3817 632.501 107.109C627.254 110.561 621.547 114.163 615.399 117.819C562.107 149.803 523.908 167.255 531.857 178.447C539.588 189.272 568.237 182.102 602.87 180.534C633.871 179.178 655.664 174.841 676.499 179.407C677.735 179.708 679.107 180.053 680.614 180.442C704.593 186.62 736.474 180.595 808.518 170.335C822.391 168.387 835.092 166.555 846.486 164.795C898.278 156.796 925.858 146.902 936.509 157.483C946.806 167.652 949.899 164.196 935.445 182.203C930.724 188.203 931.475 192.607 918.192 202.87C866.578 242.727 853.074 248.064 843.572 268.764" stroke="white" stroke-width="0.635" stroke-miterlimit="10"/>
<path d="M156.256 71.1126C156.256 71.1126 222.536 57.8968 243.241 61.6279C263.115 65.1892 233.47 76.8912 254.482 82.8023C274.547 88.4065 291.229 89.8447 339.149 82.573C342.851 81.9883 346.688 81.4474 350.678 80.857C410.145 71.7759 401.771 73.5226 497.026 57.5023C591.839 41.5371 616.268 36.171 665.85 46.7742C674.963 48.734 681.546 51.1623 685.428 54.2021C701.141 66.125 683.344 84.3376 650.563 105.823C645.316 109.275 639.762 112.827 633.614 116.483C581.105 148.126 543.212 165.479 551.314 176.622C559.198 187.397 587.676 180.37 622.309 178.802C653.022 177.452 675.103 173.109 695.955 177.581C697.345 177.833 698.564 178.227 699.935 178.572C724.374 184.602 756.56 178.478 827.857 168.373C841.729 166.424 854.413 164.686 865.654 162.975C917.258 155.212 944.362 145.561 954.554 156.29C964.545 166.558 966.891 163.256 953.455 181.197C948.851 187.334 950.808 191.435 937.355 201.841C886.524 241.358 873.137 246.831 863.382 267.35" stroke="white" stroke-width="0.635" stroke-miterlimit="10"/>
<path d="M177.673 69.5268C177.673 69.5268 243.376 56.3224 264.251 59.9105C284.16 63.2852 255.263 74.8328 276.31 80.5572C296.392 86.068 313.245 87.3633 360.841 80.284C364.39 79.7489 368.228 79.208 372.218 78.6176C431.614 69.9099 422.61 71.9482 516.641 56.3241C610.384 40.7057 634.948 35.3834 684.277 45.8056C693.39 47.7653 699.973 50.1937 703.872 53.1401C719.45 65.0192 701.824 83.0888 669.655 104.376C664.56 107.779 659.006 111.331 653.011 114.937C601.132 146.288 563.698 163.493 571.935 174.68C579.82 185.455 608.28 178.521 643.066 176.904C673.643 175.51 695.572 171.216 716.73 175.589C718.119 175.841 719.338 176.236 720.863 176.531C745.607 182.462 777.964 176.195 848.802 166.238C862.675 164.29 875.493 162.595 886.717 160.978C937.98 153.501 964.76 144.041 974.646 154.87C984.178 165.287 986.082 162.04 973.529 179.87C969.196 186.095 972.054 189.992 958.736 200.442C908.823 239.661 895.283 245.185 885.411 265.566" stroke="white" stroke-width="0.635" stroke-miterlimit="10"/>
<path d="M199.668 67.9301C199.668 67.9301 264.794 54.7371 285.84 58.1823C305.92 61.414 277.499 72.7197 298.564 78.3507C318.817 83.7186 335.688 84.9206 382.807 78.0833C386.356 77.5481 390.329 77.051 394.319 76.4606C453.527 67.9893 444.011 70.4563 536.971 55.1789C629.643 39.9072 654.631 34.6231 703.265 44.9194C712.243 46.8353 718.826 49.2637 722.725 52.2101C738.168 64.0454 721 81.9664 689.155 103.061C684.213 106.415 678.659 109.966 672.664 113.573C621.432 144.539 584.286 161.738 592.83 172.826C600.867 183.551 629.157 176.76 663.807 175.099C694.385 173.705 716.313 169.412 737.489 173.692C738.879 173.943 740.25 174.288 741.622 174.633C766.69 180.371 799.336 174.099 869.715 164.291C883.587 162.342 896.388 160.741 907.612 159.124C958.533 151.932 984.855 142.622 994.281 153.599C1003.35 164.165 1004.66 161.022 993.13 178.786C989.067 185.099 992.69 188.748 979.355 199.291C930.224 238.169 916.649 243.879 906.676 264.031" stroke="white" stroke-width="0.635" stroke-miterlimit="10"/>
<path d="M221.918 66.514C221.918 66.514 286.314 53.382 307.683 56.6347C327.646 59.7292 300.125 70.8311 321.225 76.2753C341.513 81.4565 358.537 82.6089 405.333 75.9641C408.881 75.4289 412.701 74.9813 416.692 74.3909C475.694 66.2492 465.684 69.0516 557.42 54.1705C649.02 39.2456 674.144 34.0053 722.372 44.1701C731.35 46.086 737.797 48.4705 741.696 51.4169C757.004 63.2083 740.007 80.9865 708.773 101.883C703.832 105.236 698.431 108.739 692.436 112.345C641.986 142.97 605.282 160.114 613.826 171.202C622.016 181.878 650.152 175.136 684.785 173.569C715.074 172.18 737.138 167.931 758.485 172.068C759.874 172.319 761.246 172.664 762.618 173.009C788.145 178.599 820.808 172.233 890.575 162.623C904.447 160.675 917.248 159.073 928.454 157.549C979.17 150.688 1005.03 141.526 1014 152.651C1022.61 163.366 1023.48 160.279 1012.68 177.981C1008.89 184.382 1013.56 187.778 1000.21 198.414C951.844 237.045 938.269 242.755 928.025 262.819" stroke="white" stroke-width="0.635" stroke-miterlimit="10"/>
<path d="M244.725 65.1802C244.725 65.1802 308.68 52.1034 330.084 55.1694C350.082 58.0772 323.173 68.9809 344.291 74.3317C364.597 79.4195 381.944 80.3795 428.263 73.9766C431.947 73.4853 435.632 72.9939 439.604 72.4969C498.554 64.6353 487.897 67.8226 578.715 53.2387C669.091 38.71 694.657 33.4145 742.46 43.5412C751.303 45.4132 757.75 47.7977 761.514 50.7003C776.686 62.4479 759.995 80.1269 729.238 100.781C724.314 104.042 719.049 107.588 713.207 111.145C663.54 141.429 627.141 158.474 635.838 169.512C644.181 180.138 672.147 173.539 706.78 171.972C736.934 170.54 758.98 166.383 780.497 170.378C781.887 170.629 783.258 170.974 784.783 171.27C810.616 176.76 843.738 170.246 912.758 160.79C926.765 158.885 939.414 157.333 950.602 155.903C1001.13 149.278 1026.52 140.358 1035.02 151.632C1043.33 162.445 1043.59 159.556 1033.82 177.099C1030.15 183.637 1035.88 186.78 1022.51 197.509C974.922 235.799 961.312 241.696 950.968 261.529" stroke="white" stroke-width="0.635" stroke-miterlimit="10"/>
<path d="M267.65 63.9833C267.65 63.9833 331.028 50.9179 352.738 53.8848C372.906 56.6497 346.61 67.3552 367.763 72.5194C388.239 77.4643 405.604 78.3309 451.599 72.1204C455.283 71.6291 458.968 71.1377 462.788 70.6902C521.532 63.1583 510.38 66.6809 599.839 52.4494C689.144 38.2675 714.845 33.0158 762.395 42.9614C771.238 44.8335 777.55 47.1741 781.313 50.0767C796.35 61.7805 779.983 79.2671 749.685 99.773C744.761 103.033 739.649 106.53 733.806 110.087C684.922 140.03 648.83 156.976 657.662 168.058C666.158 178.635 693.953 172.179 728.739 170.562C758.74 169.179 780.939 164.973 802.474 168.874C803.863 169.125 805.235 169.47 806.624 169.722C832.916 175.064 866.056 168.456 934.617 159.149C948.471 157.294 961.255 155.786 972.443 154.355C1022.63 148.016 1047.69 139.288 1055.76 150.618C1063.61 161.58 1063.42 158.746 1054.38 176.228C1050.98 182.853 1057.48 185.748 1044.24 196.522C997.441 234.47 983.813 240.461 973.351 260.156" stroke="white" stroke-width="0.635" stroke-miterlimit="10"/>
<path d="M290.539 62.9727C290.539 62.9727 353.34 49.9186 375.221 52.7427C395.272 55.3703 369.722 65.9216 391.064 70.8494C411.557 75.701 429.228 76.4685 474.765 70.4066C478.296 69.9648 482.116 69.5173 485.953 68.9764C544.356 61.7304 532.846 65.6321 621.08 51.7969C709.315 37.9617 735.304 32.7044 782.295 42.568C791.138 44.4401 797.314 46.7369 801.078 49.6395C815.979 61.2993 799.917 78.6869 770.096 98.9508C765.325 102.161 760.213 105.658 754.524 109.166C706.422 138.768 670.636 155.614 679.621 166.647C688.135 177.13 715.895 170.861 750.681 169.244C780.546 167.817 802.728 163.705 824.433 167.463C825.822 167.715 827.194 168.06 828.583 168.311C855.199 173.461 888.627 166.847 956.729 157.688C970.583 155.833 983.502 154.369 994.538 152.988C1044.38 146.935 1068.99 138.356 1076.73 149.878C1084.12 160.988 1083.63 158.253 1075.18 175.63C1072.05 182.344 1079.6 184.985 1066.19 195.902C1020.31 233.553 1006.67 239.637 995.952 259.151" stroke="white" stroke-width="0.635" stroke-miterlimit="10"/>
<path d="M313.395 62.1496C313.395 62.1496 375.619 49.1069 397.671 51.7881C417.756 54.2289 392.819 64.5821 414.178 69.4165C434.842 74.1251 452.53 74.7993 497.726 69.0233C501.257 68.5815 505.077 68.1339 508.897 67.6864C567.247 60.7205 554.954 64.9633 642.253 51.5187C729.263 38.0798 755.541 32.8167 802.126 42.5488C810.833 44.377 817.145 46.7177 820.773 49.5764C835.539 61.1925 819.648 78.4371 790.304 98.4591C785.532 101.67 780.438 105.073 774.749 108.581C727.276 137.891 691.949 154.589 701.069 165.665C709.583 176.149 737.326 169.973 771.976 168.312C801.689 166.935 823.735 162.779 845.746 166.438C847.136 166.689 848.372 166.99 850.05 167.236C876.971 172.287 910.57 165.53 978.213 156.52C992.067 154.665 1004.83 153.25 1015.99 152.007C1065.49 146.239 1089.77 137.852 1097.05 149.523C1104.14 160.733 1103.19 158.147 1095.63 175.413C1092.77 182.214 1101.21 184.652 1087.94 195.612C1042.84 232.922 1029.03 239.149 1018.2 258.526" stroke="white" stroke-width="0.635" stroke-miterlimit="10"/>
<path d="M335.929 61.5194C335.929 61.5194 397.577 48.4881 419.646 51.0758C439.614 53.3795 415.577 63.5288 436.971 68.1765C457.806 72.7422 475.512 73.323 520.383 67.7394C523.915 67.2976 527.582 66.8996 531.401 66.4521C589.546 59.8158 576.759 64.394 662.986 51.2961C748.926 38.2039 775.492 32.9352 821.518 42.5853C830.225 44.4135 836.401 46.7103 839.894 49.5252C854.524 61.0974 839.093 78.1935 810.072 98.023C805.454 101.184 800.359 104.587 794.823 108.045C748.133 137.015 713.094 153.707 722.385 164.64C731.052 175.075 758.777 168.992 793.275 167.381C822.852 165.96 845.033 161.847 867.062 165.413C868.451 165.664 869.841 165.916 871.366 166.212C898.746 171.113 932.651 164.258 999.546 155.402C1013.4 153.547 1026.3 152.176 1037.3 150.982C1086.75 145.494 1110.42 137.306 1117.26 149.032C1123.89 160.39 1122.48 157.952 1115.67 175.065C1112.92 182.003 1122.29 184.143 1109.14 195.241C1064.82 232.21 1051.12 238.574 1040.04 257.77" stroke="white" stroke-width="0.635" stroke-miterlimit="10"/>
<path d="M357.984 61.1302C357.984 61.1302 419.19 48.1541 441.295 50.5552C461.433 52.7159 438.008 62.6671 459.284 67.1776C480.001 71.6061 498.166 72.0383 542.561 66.6966C546.093 66.2548 549.759 65.8569 553.562 65.5027C611.5 59.1961 598.066 64.1591 683.223 51.408C767.938 38.7121 794.793 33.4376 840.412 42.9562C848.984 44.7406 855.16 47.0374 858.653 49.8523C873.148 61.3807 857.887 78.3338 829.478 97.9652C824.86 101.126 819.918 104.48 814.382 107.938C768.475 136.566 733.742 153.16 743.033 164.093C751.853 174.478 779.407 168.538 813.905 166.927C843.329 165.555 865.511 161.443 887.71 164.865C889.099 165.117 890.489 165.369 892.013 165.664C919.853 170.417 953.775 163.468 1020.21 154.761C1034.2 152.95 1046.95 151.629 1058.09 150.479C1107.2 145.277 1130.54 137.281 1136.92 149.155C1143.09 160.662 1141.38 158.323 1135.29 175.374C1132.82 182.4 1143.24 184.288 1129.93 195.435C1086.4 232.063 1072.68 238.52 1061.48 257.579" stroke="white" stroke-width="0.635" stroke-miterlimit="10"/>
<path d="M379.564 60.9838C379.564 60.9838 440.04 48.0686 462.604 50.321C482.624 52.3446 459.964 62.0481 481.411 66.4157C502.299 70.7013 520.617 71.0839 564.553 65.8909C568.084 65.4491 571.734 65.1445 575.553 64.697C633.439 58.6704 619.358 64.0184 703.308 51.5701C786.953 39.2209 814.078 34.0342 859.291 43.4212C867.863 45.2056 873.904 47.4586 877.397 50.2735C891.603 61.8076 876.801 78.6121 848.869 98.0015C844.404 101.113 839.462 104.467 833.926 107.925C788.666 136.168 754.374 152.706 763.801 163.684C772.774 174.019 800.157 168.222 834.808 166.561C864.096 165.146 886.414 161.077 908.631 164.406C910.173 164.608 911.409 164.91 912.799 165.161C941.097 169.766 975.173 162.767 1041.15 154.209C1055.14 152.398 1067.87 151.17 1079.01 150.02C1127.78 145.103 1150.66 137.256 1156.72 149.323C1162.58 160.929 1160.41 158.739 1155.07 175.636C1152.87 182.749 1164.19 184.433 1150.87 195.673C1107.96 232.01 1094.36 238.604 1083.06 257.433" stroke="white" stroke-width="0.635" stroke-miterlimit="10"/>
<path d="M400.357 61.1773C400.357 61.1773 460.256 48.2735 482.99 50.3831C503.046 52.2198 481.133 61.7691 502.615 65.9499C523.673 70.0926 542.009 70.3819 585.468 65.4308C589 64.989 592.649 64.6844 596.451 64.3303C653.996 58.5896 639.556 64.3167 722.435 52.2152C805.009 40.2127 832.422 35.0203 877.076 44.3254C885.513 46.0659 891.554 48.3189 895.046 51.1338C909.117 62.624 894.639 79.2361 867.166 98.4769C862.701 101.588 857.912 104.892 852.529 108.301C808.051 136.204 774.066 152.643 783.645 163.57C792.771 173.856 819.984 168.202 854.635 166.541C883.635 165.132 906.088 161.107 928.475 164.293C930.018 164.495 931.254 164.796 932.796 164.998C961.265 169.46 995.782 162.406 1061.16 153.953C1075.15 152.142 1088.02 150.957 1098.85 149.906C1147.28 145.276 1169.84 137.621 1175.31 149.793C1180.84 161.591 1178.23 159.456 1173.62 176.292C1171.69 183.493 1183.77 184.929 1170.72 196.257C1128.6 232.253 1114.98 238.941 1103.27 257.638" stroke="white" stroke-width="0.635" stroke-miterlimit="10"/>
<path d="M420.524 61.663C420.524 61.663 479.847 48.7705 502.751 50.7372C522.689 52.4367 501.677 61.7821 523.041 65.8257C544.117 69.875 562.623 70.0214 605.759 65.2628C609.273 64.9144 612.94 64.5164 616.589 64.2118C673.928 58.8008 658.993 64.8632 740.649 53.158C821.998 41.5518 849.7 36.3536 894.101 45.4777C902.537 47.2182 908.443 49.4274 911.936 52.2423C925.871 63.6887 911.699 80.2017 884.702 99.2005C880.39 102.263 875.601 105.566 870.218 108.975C826.37 136.586 792.844 152.876 802.559 163.848C811.838 174.084 838.88 168.573 873.395 166.869C902.396 165.459 924.695 161.484 947.253 164.527C948.796 164.729 950.032 165.03 951.574 165.232C980.502 169.545 1015.04 162.398 1079.96 154.093C1093.95 152.282 1106.66 151.147 1117.76 150.184C1165.85 145.839 1188.09 138.377 1193.25 150.648C1198.33 162.595 1195.41 160.559 1191.39 177.29C1189.73 184.579 1202.87 185.762 1189.51 197.189C1148.17 232.843 1134.52 239.718 1122.71 258.184" stroke="white" stroke-width="0.635" stroke-miterlimit="10"/>
<path d="M439.331 62.5012C439.331 62.5012 497.924 49.6697 521.152 51.4439C541.26 53.0005 520.725 62.1039 542.259 66.0047C563.506 69.9111 582.318 69.9584 624.977 65.4418C628.491 65.0933 632.14 64.7887 635.807 64.3907C693.093 59.2598 677.376 65.6633 758.096 54.3487C838.239 43.0454 866.212 37.9349 910.207 46.9274C918.507 48.6241 924.413 50.8332 927.77 53.6043C941.571 65.0068 927.569 81.377 901.184 100.178C896.872 103.24 892.236 106.494 887.006 109.853C843.941 137.123 810.856 153.358 820.588 164.236C829.732 174.429 857.045 169.005 891.407 167.35C920.119 165.946 942.571 161.922 965.283 164.915C966.825 165.118 968.214 165.369 969.604 165.621C998.991 169.785 1033.83 162.539 1098.01 154.388C1112 152.577 1124.69 151.536 1135.79 150.573C1183.69 146.464 1205.45 139.244 1210.15 151.663C1214.77 163.758 1211.55 161.822 1208.28 178.399C1206.74 185.825 1220.93 186.754 1207.71 198.225C1167.15 233.539 1153.48 240.507 1141.55 258.836" stroke="white" stroke-width="0.635" stroke-miterlimit="10"/>
<path d="M457.202 63.73C457.202 63.73 515.217 50.9099 538.616 52.5411C558.607 53.9606 538.972 62.8602 560.388 66.6237C581.805 70.3872 600.635 70.3411 642.971 66.0169C646.485 65.6685 650.134 65.3639 653.783 65.0593C710.863 60.258 694.652 66.9969 774.166 55.9851C853.085 45.0781 881.499 39.9124 924.934 48.8229C933.235 50.5196 939.141 52.7287 942.363 55.456C956.028 66.8147 942.485 83.0362 916.424 101.644C912.265 104.657 907.629 107.911 902.399 111.271C860.116 138.199 827.184 154.385 837.205 165.257C846.501 175.4 873.644 170.12 908.159 168.415C936.871 167.011 959.171 163.036 982.052 165.887C983.595 166.089 984.984 166.341 986.526 166.543C1016.37 170.559 1051.23 163.219 1114.79 155.266C1128.92 153.499 1141.62 152.458 1152.56 151.544C1200.12 147.721 1221.27 140.699 1225.67 153.217C1229.98 165.412 1226.29 163.624 1223.76 180.14C1222.62 187.698 1237.44 188.335 1224.34 199.943C1184.41 234.966 1171.01 242.021 1158.83 260.169" stroke="white" stroke-width="0.635" stroke-miterlimit="10"/>
<path d="M473.717 65.3114C473.717 65.3114 531.155 52.5027 554.86 54.0349C574.886 55.2676 555.998 64.0129 577.45 67.5896C599.038 71.2102 618.021 71.1146 659.898 66.939C663.411 66.5906 666.907 66.3355 670.557 66.0309C727.584 61.5098 710.726 68.6336 789.015 58.0181C866.863 47.4578 895.413 42.3359 938.442 51.1149C946.608 52.7678 952.513 54.9769 955.735 57.7041C969.265 69.019 955.892 85.0976 930.443 103.508C926.284 106.52 921.801 109.725 916.724 113.035C875.089 139.579 842.598 155.709 852.772 166.532C862.221 176.625 889.058 171.444 923.709 169.783C952.132 168.385 974.72 164.404 997.619 167.161C999.162 167.364 1000.55 167.615 1002.09 167.817C1032.4 171.684 1067.41 164.295 1130.51 156.491C1144.49 154.774 1157.32 153.776 1168.25 152.956C1215.46 149.419 1236.29 142.589 1240.38 155.207C1244.23 167.55 1240.38 165.905 1238.45 182.223C1237.59 189.868 1253.46 190.252 1240.34 201.954C1201.19 236.635 1187.63 243.833 1175.33 261.844" stroke="white" stroke-width="0.635" stroke-miterlimit="10"/>
<path d="M488.717 67.2948C488.717 67.2948 545.426 54.547 569.454 55.8867C589.362 56.9822 571.239 65.4798 592.709 68.9632C614.314 72.4904 633.467 72.2519 674.868 68.3183C678.381 67.9699 681.878 67.7148 685.509 67.5036C742.331 63.3121 724.979 70.7712 802.197 60.5024C878.974 50.2889 907.812 45.1613 950.282 53.8583C958.448 55.5112 964.218 57.6765 967.44 60.4037C980.834 71.6747 967.767 87.6543 942.795 105.822C938.789 108.785 934.306 111.99 929.229 115.3C888.376 141.503 856.191 157.534 866.501 168.401C876.103 178.444 902.769 173.406 937.42 171.745C965.843 170.347 988.278 166.416 1011.35 169.03C1012.76 169.189 1014.14 169.44 1015.69 169.642C1046.45 173.361 1081.61 165.922 1144.13 158.223C1158.1 156.505 1170.93 155.508 1181.84 154.781C1228.72 151.53 1249.22 144.892 1252.85 157.658C1256.24 170.15 1252.08 168.604 1250.89 184.861C1250.29 192.594 1267.07 192.775 1253.79 204.526C1215.43 238.866 1201.98 246.201 1189.43 264.031" stroke="white" stroke-width="0.635" stroke-miterlimit="10"/>
<path d="M502.336 69.7231C502.336 69.7231 558.604 57.0306 582.667 58.1836C602.593 59.1857 585.235 67.4356 606.74 70.7323C628.38 74.0727 647.839 73.7351 688.763 70.0435C692.277 69.6951 695.755 69.5334 699.405 69.2288C756.021 65.367 738.174 73.1614 814.321 63.2394C889.875 53.4221 919.001 48.2889 961.2 56.8982C969.365 58.5511 975 60.6725 978.087 63.3559C991.21 74.5392 978.603 90.3702 953.954 108.346C949.948 111.309 945.618 114.464 940.405 117.73C900.182 143.641 868.456 159.524 878.919 170.341C888.674 180.335 915.17 175.44 949.685 173.735C977.82 172.343 1000.39 168.455 1023.63 170.927C1025.04 171.085 1026.43 171.337 1028.12 171.489C1059.21 175.016 1094.53 167.527 1156.58 159.977C1170.55 158.259 1183.36 157.355 1194.28 156.628C1240.81 153.663 1260.99 147.218 1264.03 160.089C1267.11 172.679 1262.64 171.233 1261.89 187.434C1261.57 195.255 1279.11 195.188 1266.1 207.026C1228.53 241.025 1214.9 248.504 1202.39 266.147" stroke="white" stroke-width="0.635" stroke-miterlimit="10"/>
<path d="M514.003 72.6091C514.003 72.6091 569.694 59.9279 593.928 60.938C613.889 61.7534 597.279 69.849 618.819 72.9589C640.63 76.1565 660.242 75.7693 700.707 72.2263C704.067 71.9274 707.699 71.7162 711.331 71.505C767.894 67.9233 749.265 76.0587 824.323 66.5768C898.806 57.1063 928.221 51.9673 969.86 60.4947C977.89 62.1037 983.525 64.2251 986.611 66.9085C999.599 78.048 987.298 93.7799 963.126 111.514C959.272 114.427 954.943 117.582 949.883 120.799C910.442 146.369 879.023 162.153 889.621 173.014C899.376 183.008 925.854 178.206 960.522 176.452C988.369 175.065 1011.23 171.172 1034.49 173.55C1035.89 173.708 1037.43 173.91 1038.98 174.112C1070.52 177.49 1106.15 169.903 1167.45 162.506C1181.56 160.832 1194.22 159.978 1205.27 159.295C1251.61 156.566 1271.18 150.319 1273.89 163.382C1276.52 176.122 1271.88 174.818 1271.74 190.821C1271.82 198.773 1290.28 198.409 1277.11 210.391C1240.16 244.098 1226.81 251.664 1214.04 269.126" stroke="white" stroke-width="0.635" stroke-miterlimit="10"/>
<path d="M523.397 76.1449C523.397 76.1449 578.358 63.5246 602.915 64.3422C622.758 65.0204 607.066 72.8189 628.47 75.8849C650.299 78.9891 670.082 78.459 710.358 75.1523C713.719 74.8534 717.351 74.6422 720.829 74.4805C777.187 71.2284 758.063 79.6993 831.916 70.5203C905.174 61.446 934.877 56.3013 976.264 64.6476C984.294 66.2567 989.793 68.3343 993.033 70.9681C1005.88 82.0638 993.754 97.6527 970.194 115.188C966.341 118.102 962.164 121.208 957.104 124.424C918.446 149.653 887.315 165.431 898.084 176.149C907.992 186.094 934.452 181.385 968.968 179.681C996.814 178.294 1019.38 174.406 1042.95 176.685C1044.36 176.844 1045.9 177.046 1047.44 177.248C1079.45 180.477 1115.22 172.84 1176.07 165.592C1190.18 163.918 1202.84 163.064 1213.71 162.524C1259.72 160.08 1278.96 154.026 1281.23 167.145C1283.4 180.033 1278.46 178.828 1279.05 194.77C1279.25 202.86 1298.62 202.198 1285.58 214.224C1249.28 247.546 1236.05 255.25 1223.01 272.624" stroke="white" stroke-width="0.635" stroke-miterlimit="10"/>
<path d="M530.375 80.2866C530.375 80.2866 584.759 67.6778 609.623 68.3964C629.483 68.9811 614.556 76.5319 635.996 79.4112C657.995 82.3725 677.931 81.7929 717.748 78.6348C721.245 78.3797 724.723 78.218 728.202 78.0563C784.506 75.0844 764.736 83.9401 837.517 75.1078C909.704 66.3803 939.696 61.23 980.523 69.4943C988.418 71.0595 993.917 73.1371 997.157 75.7709C1009.87 86.8227 998.202 102.263 974.965 119.606C971.13 122.426 967.088 125.576 962.182 128.743C924.171 153.587 893.481 169.31 904.385 180.072C914.311 189.923 940.736 185.401 975.251 183.697C1002.81 182.315 1025.52 178.472 1049.25 180.608C1050.81 180.717 1052.2 180.968 1053.89 181.121C1086.36 184.201 1122.15 176.471 1182.54 169.372C1196.65 167.698 1209.29 166.937 1220.17 166.397C1265.7 164.196 1284.75 158.377 1286.56 171.644C1288.27 184.681 1283.16 183.619 1284.21 199.413C1284.68 207.59 1304.95 206.725 1291.9 218.844C1256.38 251.825 1243.11 259.715 1229.97 276.859" stroke="white" stroke-width="0.635" stroke-miterlimit="10"/>
<path d="M536.414 85.61C536.414 85.61 590.069 73.062 615.256 73.5882C634.999 74.0357 620.972 81.3827 642.294 84.1248C664.463 86.9431 684.552 86.314 723.758 83.354C727.254 83.099 730.732 82.9373 734.211 82.7756C790.31 80.1333 770.045 89.3244 841.603 80.8884C912.719 72.5076 942.846 67.4011 983.267 75.5339C991.162 77.0991 996.661 79.1766 999.765 81.7667C1012.35 92.7746 1000.85 108.072 978.221 125.217C974.385 128.037 970.497 131.137 965.59 134.304C928.362 158.807 897.978 174.431 909.035 185.144C919.114 194.945 945.369 190.566 979.748 188.818C1007.31 187.437 1030.01 183.593 1053.76 185.636C1055.32 185.744 1056.71 185.996 1058.27 186.105C1091.2 189.037 1127.14 181.257 1186.94 174.263C1201.04 172.589 1213.82 171.871 1224.68 171.424C1269.87 169.509 1288.6 163.883 1289.95 177.299C1291.36 190.435 1286.07 189.516 1287.71 205.205C1288.46 213.47 1309.79 212.351 1296.71 224.563C1261.82 257.253 1248.69 265.187 1235.43 282.194" stroke="white" stroke-width="0.635" stroke-miterlimit="10"/>
<path d="M541.359 91.3722C541.359 91.3722 594.437 78.8356 619.795 79.2189C639.572 79.4797 626.158 86.6285 647.65 89.2277C669.99 91.9031 690.25 91.1311 728.979 88.4131C732.475 88.158 735.8 88.0459 739.279 87.8842C795.172 85.5715 774.26 95.1475 844.9 87.0087C914.656 78.9803 945.207 73.912 985.222 81.9133C992.981 83.4346 998.481 85.5122 1001.45 88.0584C1013.9 99.0225 1002.7 114.221 980.552 131.124C976.87 133.894 972.846 136.951 968.228 140.112C931.629 164.324 901.704 179.799 912.896 190.555C923.128 200.307 949.213 196.071 983.745 194.273C1011.01 192.898 1033.86 189.098 1057.78 190.998C1059.34 191.106 1060.88 191.309 1062.29 191.467C1095.67 194.25 1131.77 186.421 1190.97 179.531C1205.21 177.901 1217.84 177.233 1228.7 176.786C1273.69 175.107 1291.81 169.68 1292.86 183.195C1293.81 196.479 1288.21 195.659 1290.45 211.243C1291.6 219.64 1313.56 218.229 1300.6 230.579C1266.49 262.928 1253.48 270.999 1239.97 287.825" stroke="white" stroke-width="0.635" stroke-miterlimit="10"/>
<path d="M545.004 97.2077C545.004 97.2077 597.487 84.7759 622.88 84.9723C642.676 85.1398 630.026 92.0409 651.553 94.4533C674.064 96.9859 694.477 96.1643 732.747 93.5949C736.09 93.3894 739.704 93.2715 743.029 93.1594C798.87 91.1269 777.175 101.044 846.879 93.2957C915.565 85.6141 946.54 80.5839 985.995 88.5031C993.754 90.0245 999.118 92.0582 1002.09 94.6044C1014.4 105.525 1003.53 120.531 981.837 137.285C978.154 140.056 974.284 143.062 969.666 146.223C933.849 170.094 904.231 185.47 915.576 196.177C925.808 205.929 951.874 201.786 986.407 199.988C1013.68 198.613 1036.36 194.863 1060.46 196.62C1062.02 196.728 1063.56 196.931 1065.12 197.039C1098.83 199.63 1135.37 191.746 1193.95 185.054C1208.2 183.424 1220.67 182.806 1231.65 182.496C1276.3 181.103 1294.1 175.868 1294.69 189.531C1295.17 202.964 1289.56 202.237 1292.24 217.767C1293.66 226.251 1316.52 224.637 1303.57 236.986C1269.95 269 1257.06 277.208 1243.29 293.853" stroke="white" stroke-width="0.635" stroke-miterlimit="10"/>
<path d="M547.915 103.104C547.915 103.104 599.668 90.7333 625.385 90.7374C645.062 90.7676 633.313 97.4649 654.723 99.7401C677.251 102.179 697.834 101.215 735.781 98.8379C739.124 98.6323 742.585 98.564 746.063 98.4023C801.698 96.6995 779.509 106.952 847.854 99.556C915.315 92.2707 946.579 87.2348 985.628 95.0225C993.252 96.5 998.616 98.5338 1001.58 101.08C1013.76 111.956 1003.19 126.863 981.981 143.376C978.452 146.097 974.581 149.103 969.963 152.265C934.794 175.75 905.617 191.071 917.097 201.822C927.482 211.524 953.531 207.475 987.911 205.727C1014.89 204.357 1037.87 200.601 1061.98 202.265C1063.54 202.373 1065.08 202.575 1066.64 202.684C1100.81 205.126 1137.37 197.148 1195.49 190.606C1209.58 189.025 1222.34 188.401 1233.17 188.141C1277.48 187.034 1294.96 181.991 1295.08 195.803C1295.27 209.335 1289.33 208.801 1292.62 224.132C1294.45 232.747 1318.09 230.792 1305.1 243.328C1272.27 275.001 1259.49 283.347 1245.47 299.81" stroke="white" stroke-width="0.635" stroke-miterlimit="10"/>
<path d="M549.54 108.98C549.54 108.98 600.716 96.6203 626.739 96.5253C646.298 96.4183 635.314 102.868 656.894 105C679.593 107.296 700.329 106.282 737.817 104.054C741.16 103.849 744.621 103.78 748.082 103.712C803.664 102.289 780.828 112.927 848.101 105.877C914.492 98.9388 946.044 93.8972 984.687 101.553C992.31 103.031 997.539 105.021 1000.51 107.567C1012.55 118.4 1002.15 133.164 981.552 149.478C978.022 152.199 974.305 155.156 969.84 158.268C935.453 181.413 906.564 196.728 918.216 207.335C928.754 216.988 954.632 213.082 989.012 211.334C1015.86 209.92 1038.82 206.257 1062.95 207.828C1064.51 207.936 1065.91 208.095 1067.61 208.247C1102.23 210.541 1138.94 202.513 1196.48 196.075C1210.57 194.495 1223.31 193.964 1234.13 193.704C1278.13 192.789 1295.26 188.032 1294.79 201.949C1294.51 215.629 1288.43 215.145 1292.16 230.421C1294.26 239.124 1318.8 236.965 1305.79 249.594C1273.6 280.882 1260.79 289.415 1246.81 305.691" stroke="white" stroke-width="0.635" stroke-miterlimit="10"/>
<path d="M550.568 114.959C550.568 114.959 601.015 102.661 627.361 102.373C646.938 102.173 636.719 108.375 658.182 110.37C681.051 112.523 701.94 111.46 738.951 109.473C742.294 109.268 745.602 109.249 749.063 109.181C804.575 108.132 781.11 119.06 847.312 112.358C912.478 105.816 944.319 100.768 982.555 108.293C990.026 109.82 995.272 111.717 998.105 114.219C1010.01 125.008 1000.07 139.623 979.661 155.701C976.285 158.373 972.567 161.33 967.967 164.398C934.363 187.201 905.78 202.417 917.567 213.069C928.258 222.672 953.965 218.909 988.363 217.067C1015.06 215.703 1038.03 211.947 1062.31 213.468C1063.87 213.577 1065.28 213.735 1066.99 213.794C1102.23 215.889 1138.94 207.862 1195.73 201.578C1209.95 200.042 1222.56 199.467 1233.5 199.344C1277.15 198.715 1293.83 194.107 1293.19 208.166C1292.45 221.996 1286.19 221.654 1290.52 236.825C1292.89 245.616 1318.2 243.209 1305.32 255.883C1273.77 286.879 1261.23 295.499 1246.99 311.595" stroke="white" stroke-width="0.635" stroke-miterlimit="10"/>
<path d="M550.903 120.814C550.903 120.814 600.62 108.576 627.29 108.096C646.749 107.759 637.43 113.757 658.928 115.565C681.832 117.532 703.163 116.413 739.562 114.625C743.04 114.463 746.348 114.444 749.656 114.426C804.962 113.706 780.867 124.926 845.981 118.664C910.077 112.468 942.205 107.415 979.883 114.858C987.218 116.341 992.464 118.238 995.297 120.74C1007.07 131.485 997.301 145.958 977.501 161.838C974.124 164.509 970.559 167.417 966.112 170.435C933.138 192.947 905.014 208.015 916.953 218.617C927.662 228.127 953.335 224.55 987.732 222.708C1014.29 221.3 1037.25 217.638 1061.7 219.015C1063.26 219.124 1064.82 219.233 1066.38 219.342C1101.94 221.245 1138.94 213.212 1195.27 207.076C1209.49 205.54 1222.08 205.059 1232.87 204.985C1276.18 204.642 1292.53 200.226 1291.43 214.434C1290.24 228.412 1283.96 228.164 1288.75 243.186C1291.68 252.059 1317.75 249.405 1304.7 262.221C1273.93 292.876 1261.37 301.59 1246.86 317.598" stroke="white" stroke-width="0.635" stroke-miterlimit="10"/>
<path d="M550.66 126.679C550.66 126.679 599.935 114.497 626.64 113.83C645.982 113.355 637.581 119.056 658.943 120.821C682.018 122.645 703.366 121.432 739.442 119.837C742.92 119.675 746.228 119.656 749.536 119.637C804.789 119.198 780.047 130.803 844.09 124.888C906.979 118.995 939.378 114.03 976.65 121.341C983.985 122.824 989.231 124.72 991.929 127.179C1003.41 137.93 994.103 152.253 974.779 167.891C971.556 170.513 967.991 173.421 963.544 176.439C931.217 198.567 903.534 213.579 915.609 224.225C926.318 233.735 951.837 230.207 986.37 228.41C1012.77 227.051 1035.73 223.388 1060.36 224.623C1061.92 224.732 1063.48 224.841 1065.04 224.95C1101.05 226.704 1138.21 218.621 1193.94 212.591C1208.16 211.054 1220.74 210.667 1231.53 210.593C1274.51 210.442 1290.52 206.312 1288.83 220.625C1287.33 234.702 1280.88 234.597 1286.11 249.564C1289.31 258.525 1316.15 255.623 1303.37 268.527C1273.09 298.846 1260.79 307.741 1246.18 323.518" stroke="white" stroke-width="0.635" stroke-miterlimit="10"/>
<path d="M550.282 132.501C550.282 132.501 598.828 120.379 625.992 119.564C645.504 118.946 637.715 124.449 659.112 126.027C682.358 127.708 703.859 126.446 739.476 124.999C742.801 124.887 746.109 124.868 749.417 124.849C804.465 124.739 779.228 136.68 842.065 131.067C903.73 125.571 936.57 120.55 973.418 127.823C980.618 129.263 985.864 131.159 988.562 133.618C999.907 144.325 990.924 158.456 972.059 173.945C968.836 176.567 965.424 179.425 961.129 182.394C929.585 204.18 902.208 219.093 914.437 229.69C925.298 239.15 950.647 235.766 985.18 233.968C1011.45 232.566 1034.54 228.947 1059.18 230.089C1060.74 230.197 1062.3 230.306 1064.02 230.365C1100.49 231.971 1137.67 223.795 1192.94 217.913C1207.16 216.377 1219.74 215.989 1230.64 216.053C1273.29 216.188 1288.84 212.206 1286.98 226.662C1285.02 240.888 1278.26 240.881 1284.09 255.744C1287.69 264.836 1315.29 261.686 1302.5 274.684C1273.01 304.662 1260.68 313.65 1245.95 329.29" stroke="white" stroke-width="0.635" stroke-miterlimit="10"/>
<path d="M549.345 138.24C549.345 138.24 597.161 126.18 624.648 125.172C644.043 124.417 637.154 129.716 658.587 131.107C682.003 132.645 703.658 131.334 738.662 130.085C741.987 129.972 745.431 129.997 748.586 130.028C803.427 130.248 777.697 142.524 839.309 137.308C899.903 132.158 932.879 127.181 969.321 134.323C976.52 135.762 981.631 137.615 984.329 140.073C995.539 150.736 986.862 164.769 968.474 180.016C965.403 182.588 961.992 185.447 957.697 188.415C926.935 209.86 899.712 224.724 912.228 235.315C923.243 244.726 948.574 241.435 983.107 239.637C1009.22 238.284 1032.32 234.665 1057.13 235.664C1058.84 235.723 1060.25 235.882 1061.96 235.941C1098.92 237.304 1136.22 229.172 1190.9 223.395C1205.26 221.902 1217.68 221.564 1228.43 221.678C1270.74 222.098 1285.96 218.309 1283.64 232.914C1281.22 247.288 1274.46 247.375 1280.87 262.133C1284.75 271.312 1313.11 267.915 1300.46 280.956C1271.46 310.6 1259.4 319.675 1244.56 335.178" stroke="white" stroke-width="0.635" stroke-miterlimit="10"/>
<path d="M548.422 143.886C548.422 143.886 595.797 131.881 623.319 130.687C642.731 129.838 636.472 134.846 657.923 136.143C681.357 137.588 703.317 136.178 737.862 135.077C741.188 134.965 744.478 135.04 747.633 135.07C802.404 135.664 775.756 148.237 836.586 143.361C895.956 138.608 929.373 133.576 965.255 140.636C972.32 142.031 977.43 143.884 979.993 146.299C991.067 156.918 982.561 170.807 964.785 185.856C961.714 188.429 958.455 191.237 954.161 194.206C924.046 215.266 897.4 230.119 909.781 240.665C920.948 250.027 946.109 246.879 980.507 245.037C1006.49 243.64 1029.56 240.115 1054.55 240.971C1056.26 241.03 1057.67 241.188 1059.24 241.204C1096.66 242.419 1134.27 234.188 1188.33 228.609C1202.7 227.116 1215.25 226.821 1225.85 226.984C1267.83 227.598 1282.72 224.094 1279.8 238.804C1276.92 253.326 1270.14 253.507 1276.86 268.166C1281.14 277.477 1310.43 273.782 1297.6 286.966C1269.24 316.225 1257.29 325.531 1242.19 340.853" stroke="white" stroke-width="0.635" stroke-miterlimit="10"/>
<path d="M547.523 149.439C547.523 149.439 594.167 137.495 622.014 136.108C641.308 135.122 635.949 139.926 657.435 141.037C681.039 142.339 703.152 140.879 737.374 139.971C740.699 139.859 743.99 139.933 747.28 140.008C801.999 140.881 774.703 153.839 834.462 149.311C892.761 144.904 926.314 139.916 961.943 146.794C969.007 148.19 974.135 149.949 976.545 152.413C987.484 162.989 979.436 176.73 961.984 191.586C959.066 194.109 955.808 196.918 951.666 199.837C922.181 220.606 895.993 235.309 908.663 245.851C919.983 255.162 944.974 252.157 979.371 250.316C1005.06 248.925 1028.29 245.35 1053.43 246.156C1055.14 246.215 1056.7 246.324 1058.28 246.339C1096.15 247.406 1133.92 239.125 1187.39 233.651C1201.75 232.158 1214.15 231.913 1225.02 232.164C1266.66 233.063 1281.22 229.752 1277.85 244.61C1274.66 259.232 1267.71 259.555 1274.89 274.065C1279.44 283.464 1309.49 279.522 1296.93 292.794C1269.21 321.761 1257.39 331.111 1242.18 346.295" stroke="white" stroke-width="0.635" stroke-miterlimit="10"/>
<path d="M546.81 154.756C546.81 154.756 592.86 142.917 620.895 141.293C640.206 140.215 635.766 144.721 656.98 145.744C680.756 146.903 702.886 145.35 736.784 144.634C740.245 144.566 743.383 144.69 746.538 144.721C801.051 145.924 773.261 159.217 831.795 155.085C888.87 151.074 922.712 146.081 957.934 152.828C964.863 154.179 969.992 155.939 972.401 158.403C983.205 168.934 975.328 182.532 958.487 197.191C955.723 199.664 952.464 202.473 948.323 205.392C919.62 225.82 893.738 240.424 906.408 250.965C917.593 260.233 942.701 257.366 977.099 255.524C1002.79 254.133 1025.87 250.607 1051.17 251.271C1052.75 251.286 1054.45 251.439 1056.02 251.454C1094.37 252.279 1132.27 244.042 1185.15 238.672C1199.36 237.229 1211.9 237.028 1222.77 237.279C1264.22 238.414 1278.17 235.301 1274.62 250.302C1270.98 265.072 1264 265.489 1271.63 279.944C1276.74 289.425 1307.4 285.285 1294.69 298.606C1267.61 327.188 1255.9 336.769 1240.58 351.723" stroke="white" stroke-width="0.635" stroke-miterlimit="10"/>
<path d="M546.404 159.974C546.404 159.974 591.724 148.196 620.218 146.424C639.412 145.208 635.736 149.466 657.121 150.347C681.067 151.362 703.351 149.76 736.79 149.193C740.251 149.124 743.388 149.249 746.525 149.373C800.968 150.949 772.548 164.534 829.877 160.705C885.745 156.997 920.011 152.042 954.674 158.707C961.603 160.058 966.596 161.774 969.005 164.238C979.673 174.726 972.103 188.224 955.739 202.641C952.974 205.114 949.868 207.873 945.88 210.743C917.825 230.786 892.231 245.385 905.342 255.871C916.68 265.089 941.618 262.364 976.168 260.473C1001.57 259.088 1024.78 255.606 1050.26 256.127C1051.84 256.142 1053.4 256.251 1055.11 256.31C1093.92 256.986 1131.97 248.7 1184.25 243.435C1198.6 242.035 1211.14 241.834 1221.84 242.228C1262.81 243.605 1276.57 240.729 1272.43 255.835C1268.33 270.753 1261.19 271.313 1269.27 285.619C1274.65 295.188 1306.08 290.8 1293.64 304.209C1267.19 332.5 1255.61 342.124 1240.17 356.941" stroke="white" stroke-width="0.635" stroke-miterlimit="10"/>
<path d="M546.316 164.999C546.316 164.999 591.194 153.276 619.723 151.317C638.935 150.008 636.024 154.019 657.444 154.712C681.425 155.541 703.997 153.933 736.824 153.564C740.132 153.545 743.27 153.669 746.56 153.744C800.797 155.65 771.748 169.526 827.988 166.137C882.632 162.826 917.186 157.865 951.443 164.398C958.236 165.706 963.365 167.465 965.639 169.886C976.171 180.329 969.06 193.68 952.884 207.86C950.272 210.284 947.031 212.999 943.043 215.869C915.77 235.571 890.483 250.07 903.594 260.556C915.085 269.725 940.005 267.094 974.402 265.252C999.806 263.867 1023.02 260.385 1048.51 260.812C1050.09 260.827 1051.65 260.936 1053.51 260.946C1092.65 261.429 1130.99 253.137 1182.68 247.977C1197.02 246.578 1209.4 246.426 1220.24 246.864C1261.03 248.477 1274.31 245.843 1269.71 261.097C1265.31 276.115 1257.99 276.818 1266.67 291.019C1272.45 300.719 1304.8 296.034 1292.19 309.586C1266.24 337.541 1255.06 347.297 1239.09 361.939" stroke="white" stroke-width="0.635" stroke-miterlimit="10"/>
<path d="M546.844 169.826C546.844 169.826 590.993 158.163 619.845 156.012C638.939 154.565 636.946 158.279 658.231 158.929C682.383 159.615 705.108 157.957 737.476 157.737C740.784 157.718 744.057 157.886 747.194 158.01C801.225 160.246 771.682 174.458 826.851 171.415C880.424 168.451 915.267 163.484 949.1 169.979C955.893 171.287 960.886 173.002 963.025 175.379C973.422 185.779 966.481 198.986 950.917 212.968C948.306 215.392 945.217 218.058 941.382 220.878C914.739 240.288 889.91 254.64 903.31 265.12C914.954 274.239 939.703 271.751 973.965 269.865C999.08 268.485 1022.43 265.048 1048.09 265.332C1049.67 265.347 1051.38 265.407 1052.96 265.422C1092.7 265.707 1131.05 257.415 1182.27 252.404C1196.62 251.004 1209.14 250.897 1219.82 251.384C1260.13 253.239 1273.23 250.841 1268.32 266.194C1263.46 281.361 1255.99 282.113 1265.1 296.259C1271.32 305.998 1304.27 301.114 1291.8 314.71C1266.49 342.28 1255.28 352.223 1239.34 366.678" stroke="white" stroke-width="0.635" stroke-miterlimit="10"/>
<path d="M547.986 174.455C547.986 174.455 591.541 162.897 620.428 160.559C639.539 159.019 638.312 162.486 659.632 162.949C683.954 163.492 706.832 161.784 738.741 161.713C742.049 161.694 745.322 161.862 748.306 162.036C802.267 164.645 772.094 179.148 826.192 176.452C878.695 173.835 913.808 168.955 947.099 175.275C953.893 176.583 958.75 178.255 960.889 180.631C971.15 190.987 964.515 204.096 949.428 217.836C946.834 220.166 943.882 222.876 940.046 225.696C914.05 244.721 889.799 259.061 903.063 269.497C914.707 278.617 939.438 276.222 973.7 274.336C998.816 272.957 1022.01 269.568 1047.84 269.71C1049.42 269.725 1051.14 269.784 1052.71 269.8C1092.92 269.936 1131.27 261.551 1181.89 256.738C1196.24 255.338 1208.74 255.324 1219.56 255.855C1259.68 257.947 1272.16 255.747 1266.8 271.248C1261.47 286.564 1253.99 287.409 1263.55 301.5C1270.16 311.37 1303.89 306.239 1291.4 319.928C1266.72 347.207 1255.78 357.237 1239.59 371.511" stroke="white" stroke-width="0.635" stroke-miterlimit="10"/>
<path d="M550.044 178.786C550.044 178.786 592.868 167.29 622.079 164.759C641.208 163.126 640.746 166.344 661.948 166.67C686.441 167.071 709.472 165.314 741.057 165.434C744.365 165.416 747.485 165.633 750.469 165.807C804.224 168.746 773.269 183.59 826.431 181.285C877.574 179.019 913.264 174.129 945.996 180.367C952.654 181.631 957.512 183.302 959.803 185.629C969.93 195.942 963.618 208.857 948.99 222.449C946.396 224.779 943.596 227.439 939.761 230.259C914.547 248.944 890.602 263.185 904.154 273.615C915.952 282.685 940.513 280.433 974.928 278.498C999.754 277.124 1023.24 273.73 1049.09 273.778C1050.67 273.793 1052.38 273.853 1053.96 273.868C1094.64 273.763 1133.13 265.421 1183.15 260.713C1197.63 259.357 1210 259.299 1220.65 259.973C1260.29 262.306 1272.59 260.343 1266.77 275.993C1260.98 291.457 1253.48 292.396 1263.5 306.338C1270.67 316.29 1304.87 310.917 1292.65 324.694C1268.62 351.588 1257.65 361.805 1241.49 375.892" stroke="white" stroke-width="0.635" stroke-miterlimit="10"/>
<path d="M553.154 182.865C553.154 182.865 595.384 171.473 624.919 168.75C643.93 166.98 644.232 169.951 665.605 170.133C690.268 170.391 713.452 168.584 744.579 168.854C748.022 168.879 751.142 169.096 754.126 169.27C807.829 172.489 776.226 187.718 828.182 185.716C878.254 183.797 914.079 178.95 946.558 185.007C953.216 186.271 957.938 187.899 960.23 190.226C970.221 200.494 964.215 213.311 950.064 226.661C947.623 228.942 944.823 231.602 941.141 234.372C916.71 252.716 892.917 266.907 906.623 277.288C918.437 286.265 942.963 284.199 977.378 282.264C1002.21 280.89 1025.4 277.502 1051.56 277.451C1053.14 277.466 1054.85 277.525 1056.58 277.491C1097.58 277.193 1136.37 268.846 1185.79 264.242C1200.27 262.887 1212.62 262.922 1223.27 263.596C1262.73 266.166 1274.55 264.444 1268.27 280.243C1262.17 295.806 1254.5 296.888 1264.82 310.731C1272.27 320.771 1307.52 315.144 1295.13 329.064C1271.6 355.623 1261.03 365.971 1244.46 379.927" stroke="white" stroke-width="0.635" stroke-miterlimit="10"/>
<path d="M557.318 186.69C557.318 186.69 598.818 175.359 628.677 172.444C647.705 170.58 648.926 173.254 670.028 173.349C694.862 173.463 718.199 171.607 748.713 172.075C752.004 172.149 755.123 172.367 758.108 172.54C811.74 176.133 779.507 191.654 830.392 189.998C879.24 188.476 915.507 183.574 947.427 189.549C953.949 190.769 958.671 192.397 960.828 194.68C970.683 204.904 964.848 217.578 951.309 230.73C948.868 233.011 946.221 235.621 942.538 238.392C918.602 256.4 895.404 270.486 909.398 280.862C921.365 289.789 945.721 287.866 980.136 285.931C1004.67 284.563 1028.16 281.169 1054.33 281.024C1056.06 280.99 1057.62 281.099 1059.35 281.065C1100.97 280.569 1139.75 272.222 1188.72 267.766C1203.2 266.411 1215.69 266.49 1226.32 267.257C1265.3 270.069 1276.64 268.589 1270.21 284.438C1263.65 300.149 1255.96 301.324 1266.73 315.113C1274.73 325.234 1310.46 319.366 1298.21 333.329C1275.17 359.553 1264.87 369.989 1248.19 383.807" stroke="white" stroke-width="0.635" stroke-miterlimit="10"/>
<path d="M562.707 190.118C562.707 190.118 603.766 178.842 633.659 175.74C652.57 173.739 654.555 176.165 675.828 176.117C700.697 176.045 724.323 174.183 754.378 174.8C757.668 174.874 760.788 175.092 763.755 175.359C817.181 179.281 784.319 195.093 834.115 193.878C881.757 192.658 918.294 187.844 949.808 193.687C956.331 194.907 960.917 196.491 963.073 198.774C972.641 209.005 967.418 221.48 954.202 234.44C951.914 236.671 949.267 239.281 945.737 242.002C922.583 259.669 899.691 273.657 913.685 284.032C925.806 292.91 950.144 291.08 984.27 289.151C1008.67 287.739 1032.14 284.438 1058.49 284.151C1060.22 284.117 1061.93 284.176 1063.37 284.148C1105.31 283.459 1144.38 275.106 1192.76 270.756C1207.22 269.494 1219.57 269.529 1230.33 270.34C1269.13 273.388 1279.99 272.15 1273.1 288.148C1266.09 304.008 1258.38 305.276 1269.6 318.916C1277.88 329.125 1314.38 323.009 1302.24 337.11C1279.98 362.992 1269.65 373.615 1252.86 387.203" stroke="white" stroke-width="0.635" stroke-miterlimit="10"/>
<path d="M569.437 193.288C569.437 193.288 609.901 182.117 639.983 178.779C658.911 176.685 661.662 178.863 682.969 178.628C708.009 178.413 731.923 176.546 761.384 177.267C764.674 177.341 767.641 177.608 770.761 177.826C824.117 182.122 790.625 198.225 839.35 197.357C885.768 196.533 922.747 191.664 953.836 197.469C960.224 198.645 964.946 200.273 966.967 202.512C976.398 212.699 971.346 225.032 958.742 237.793C956.454 240.024 953.96 242.585 950.431 245.306C927.924 262.588 905.473 276.52 919.62 286.846C931.741 295.723 956.061 293.988 990.341 292.009C1014.59 290.646 1038.06 287.346 1064.57 286.915C1066.3 286.881 1067.88 286.896 1069.61 286.862C1112.01 286.025 1151.23 277.623 1199.01 273.377C1213.48 272.115 1225.96 272.194 1236.42 273.104C1274.89 276.345 1285.41 275.393 1278.06 291.539C1270.59 307.547 1263.02 308.86 1274.53 322.494C1283.37 332.785 1320.48 326.471 1308.47 340.615C1286.71 366.162 1276.65 376.873 1259.75 390.323" stroke="white" stroke-width="0.635" stroke-miterlimit="10"/>
<path d="M577.679 196.056C577.679 196.056 617.549 184.989 647.819 181.415C666.764 179.227 670.298 181.064 691.47 180.786C716.68 180.428 740.747 178.511 769.749 179.38C773.039 179.455 776.142 179.766 779.108 180.033C832.105 184.708 798.137 201.054 845.927 200.575C891.274 200.099 928.388 195.273 959.071 200.947C965.459 202.123 970.045 203.707 972.066 205.946C981.362 216.089 976.769 228.273 964.489 240.842C962.354 243.024 959.86 245.585 956.483 248.256C934.759 265.197 912.462 279.08 926.897 289.4C939.171 298.228 963.185 296.591 997.6 294.656C1021.71 293.25 1045.32 289.993 1071.85 289.469C1073.58 289.435 1075.16 289.45 1076.89 289.416C1119.76 288.337 1159.12 279.979 1206.31 275.838C1220.77 274.576 1233.1 274.704 1243.83 275.702C1281.96 279.229 1292.16 278.469 1284.37 294.67C1276.59 310.778 1268.71 312.189 1280.67 325.768C1289.91 336.19 1327.65 329.585 1315.63 343.823C1294.36 369.034 1284.7 379.877 1267.39 393.196" stroke="white" stroke-width="0.635" stroke-miterlimit="10"/>
<path d="M587.553 198.559C587.553 198.559 626.693 187.553 657.422 183.83C676.25 181.505 680.683 183.139 701.891 182.673C727.272 182.172 751.339 180.255 780.017 181.317C783.443 181.436 786.257 181.752 789.224 182.019C842.015 187.024 807.553 203.705 853.983 203.579C897.97 203.455 935.661 198.618 965.785 204.21C972.037 205.342 976.624 206.926 978.644 209.166C987.67 219.22 983.518 231.349 971.714 243.676C969.579 245.858 967.239 248.369 963.727 250.997C942.497 267.603 920.929 281.424 935.382 291.651C947.808 300.43 971.652 298.936 1006.07 297C1030.03 295.644 1053.63 292.387 1080.33 291.72C1082.07 291.686 1083.64 291.702 1085.37 291.667C1128.57 290.396 1168.22 282.032 1214.95 278.04C1229.41 276.777 1241.87 276.95 1252.45 277.997C1290.26 281.716 1299.98 281.198 1291.86 297.592C1283.63 313.848 1275.73 315.353 1288.28 328.827C1297.95 339.288 1336.45 332.434 1324.55 346.81C1303.93 371.636 1294.23 382.665 1276.96 395.798" stroke="white" stroke-width="0.635" stroke-miterlimit="10"/>
<path d="M599.244 200.561C599.244 200.561 637.79 189.66 668.707 185.7C687.552 183.282 692.615 184.624 713.841 184.065C739.256 183.378 763.612 181.455 791.831 182.665C795.104 182.833 798.071 183.1 800.885 183.417C853.606 188.795 818.378 205.724 863.873 205.989C906.789 206.212 944.616 201.418 974.486 206.829C980.738 207.961 985.19 209.501 987.075 211.697C995.965 221.708 991.984 233.694 980.657 245.779C978.675 247.911 976.199 250.378 972.975 253C952.528 269.265 931.266 282.988 945.854 293.258C958.298 301.943 982.107 300.636 1016.39 298.657C1040.21 297.257 1063.8 294.093 1090.67 293.284C1092.4 293.25 1094.13 293.215 1095.86 293.181C1139.67 291.712 1179.32 283.347 1225.45 279.46C1240.05 278.242 1252.36 278.464 1262.94 279.511C1300.56 283.466 1309.81 283.191 1301.1 299.689C1292.4 316.094 1284.49 317.692 1297.34 331.067C1307.57 341.609 1346.68 334.558 1334.76 349.027C1314.63 373.518 1305.35 384.679 1287.82 397.63" stroke="white" stroke-width="0.635" stroke-miterlimit="10"/>
<path d="M612.738 202.155C612.738 202.155 650.842 191.309 681.794 187.163C700.657 184.651 706.639 185.696 727.746 185.001C753.332 184.17 777.841 182.198 805.601 183.557C808.874 183.725 811.823 184.085 814.79 184.352C867.305 190.06 831.431 207.374 876.007 207.936C917.853 208.505 955.968 203.706 985.279 209.035C991.396 210.123 995.847 211.664 997.732 213.859C1006.49 223.826 1002.96 235.664 991.961 247.556C989.979 249.688 987.656 252.106 984.432 254.728C964.632 270.608 943.812 284.275 958.553 294.496C970.997 303.181 994.788 301.968 1029.22 299.939C1052.89 298.588 1076.49 295.331 1103.52 294.472C1105.25 294.438 1106.98 294.404 1108.58 294.326C1152.71 292.664 1192.65 284.294 1238.19 280.511C1252.78 279.293 1265.1 279.515 1275.64 280.749C1313.07 284.94 1321.84 284.907 1312.67 301.554C1303.67 318.058 1295.59 319.799 1308.9 333.025C1319.4 343.655 1359.28 336.356 1347.63 350.913C1327.99 375.069 1318.82 386.366 1301.33 399.131" stroke="white" stroke-width="0.635" stroke-miterlimit="10"/>
<path d="M630.151 203.532C630.151 203.532 667.66 192.792 698.801 188.409C717.682 185.804 724.292 186.557 745.57 185.719C771.327 184.745 795.989 182.723 823.29 184.231C826.563 184.399 829.512 184.759 832.326 185.076C884.771 191.157 848.131 208.719 891.619 209.721C932.105 210.643 970.644 205.882 999.549 211.079C1005.67 212.168 1009.98 213.664 1011.87 215.859C1020.49 225.783 1017.13 237.477 1006.74 249.171C1004.91 251.254 1002.59 253.672 999.367 256.294C980.196 271.882 959.835 285.401 974.712 295.666C987.309 304.301 1011.08 303.181 1045.36 301.202C1068.75 299.857 1092.48 296.644 1119.68 295.642C1121.41 295.608 1123.14 295.574 1124.74 295.496C1169.35 293.592 1209.42 285.265 1254.36 281.588C1268.96 280.369 1281.26 280.685 1291.8 281.918C1328.75 286.352 1337.2 286.511 1327.86 303.301C1318.4 319.953 1310.45 321.738 1324.05 334.959C1335.11 345.671 1375.46 338.13 1363.8 352.78C1344.81 376.551 1335.9 388.03 1317.86 400.619" stroke="white" stroke-width="0.635" stroke-miterlimit="10"/>
<path d="M649.561 204.963C649.561 204.963 686.476 194.327 717.805 189.708C736.568 186.965 744.079 187.515 765.239 186.539C791.031 185.379 815.828 183.401 842.823 185.008C846.096 185.176 848.892 185.586 851.841 185.946C904.08 192.357 866.947 210.254 909.228 211.559C948.643 212.827 987.471 208.061 1015.82 213.176C1021.93 214.264 1026.11 215.717 1028 217.912C1036.48 227.792 1033.44 239.387 1023.52 250.839C1021.69 252.922 1019.52 255.291 1016.45 257.863C997.929 273.067 977.856 286.58 993.038 296.745C1005.79 305.331 1029.39 304.354 1063.67 302.375C1087.06 301.03 1110.64 297.866 1138.01 296.721C1139.74 296.687 1141.47 296.653 1143.22 296.525C1188.15 294.429 1228.51 286.097 1272.84 282.617C1287.42 281.492 1299.87 281.758 1310.4 283.086C1347.16 287.756 1355.13 288.156 1345.2 305.051C1335.28 321.852 1327.18 323.686 1341.22 336.852C1352.84 347.646 1393.8 339.907 1382.27 354.6C1363.91 378.08 1355.14 389.603 1336.99 402.055" stroke="white" stroke-width="0.635" stroke-miterlimit="10"/>
<path d="M669.86 206.283C669.86 206.283 706.181 195.752 737.833 190.941C756.614 188.105 764.908 188.313 786.085 187.244C812.048 185.941 836.998 183.913 863.381 185.718C866.501 185.936 869.586 186.34 872.247 186.706C924.262 193.54 886.517 211.635 927.863 213.33C966.071 214.902 1005.17 210.223 1033.24 215.251C1039.23 216.295 1043.54 217.792 1045.16 219.899C1053.5 229.735 1050.92 241.182 1041.33 252.442C1039.65 254.475 1037.48 256.843 1034.41 259.416C1016.67 274.278 996.902 287.692 1012.22 297.902C1025.12 306.438 1048.56 305.604 1082.83 303.625C1105.93 302.285 1129.8 299.116 1157.19 297.878C1158.92 297.844 1160.67 297.716 1162.4 297.682C1207.94 295.387 1248.31 287.056 1292.04 283.68C1306.62 282.555 1318.92 282.871 1329.43 284.291C1365.87 289.154 1373.49 289.841 1363.1 306.884C1352.73 323.833 1344.6 325.761 1359.24 338.822C1371.28 349.654 1412.86 341.717 1401.45 356.548C1383.58 379.692 1375.06 391.396 1356.81 403.617" stroke="white" stroke-width="0.635" stroke-miterlimit="10"/>
<path d="M690.733 207.593C690.733 207.593 726.324 197.122 758.299 192.119C777.251 189.14 786.156 189.15 807.216 187.944C833.35 186.498 858.588 184.465 884.377 186.374C887.632 186.636 890.581 186.996 893.377 187.406C945.187 194.57 906.948 213 947.07 215.092C984.054 217.059 1023.44 212.375 1051.11 217.271C1057.09 218.316 1061.27 219.768 1062.89 221.876C1071.1 231.668 1068.68 242.972 1059.7 254.033C1058.03 256.066 1056.01 258.385 1053.09 260.908C1035.85 275.435 1016.81 288.788 1032.14 298.905C1045.05 307.441 1068.46 306.7 1102.61 304.677C1125.57 303.293 1149.42 300.218 1176.98 298.837C1178.73 298.709 1180.46 298.675 1182.19 298.641C1228.21 296.104 1268.71 287.816 1311.85 284.546C1326.43 283.421 1338.86 283.78 1349.22 285.25C1385.47 290.349 1392.62 291.278 1381.77 308.469C1371.08 325.518 1362.95 327.539 1377.74 340.55C1390.18 351.514 1432.39 343.286 1420.96 358.21C1403.59 381.019 1395.34 392.81 1376.97 404.894" stroke="white" stroke-width="0.635" stroke-miterlimit="10"/>
<path d="M711.777 208.759C711.777 208.759 746.774 198.393 778.784 193.203C797.753 190.13 807.288 189.849 828.519 188.5C854.687 186.867 880.061 184.878 905.679 186.93C908.935 187.192 911.731 187.602 914.527 188.012C966.131 195.505 927.262 214.227 966.448 216.709C1002.23 218.98 1042.17 214.377 1069.15 219.147C1074.99 220.148 1079.17 221.601 1080.79 223.708C1088.71 233.506 1086.75 244.661 1078.25 255.481C1076.73 257.464 1074.71 259.783 1071.79 262.306C1055.33 276.492 1036.45 289.796 1052.07 299.906C1064.99 308.35 1088.37 307.795 1122.67 305.723C1145.48 304.389 1169.33 301.313 1197.06 299.789C1198.81 299.661 1200.54 299.627 1202.28 299.5C1248.63 296.771 1289.41 288.477 1331.96 285.312C1346.68 284.23 1358.82 284.595 1369.45 286.153C1405.37 291.444 1412.05 292.615 1400.89 309.906C1389.75 327.103 1381.59 329.218 1396.69 342.13C1409.7 353.176 1452.54 344.655 1441.22 359.717C1424.5 382.141 1416.35 394.163 1397.73 406.066" stroke="white" stroke-width="0.635" stroke-miterlimit="10"/>
<path d="M733.107 209.919C733.107 209.919 767.663 199.608 799.709 194.231C818.559 191.022 829.148 190.487 850.108 189.05C876.6 187.225 901.974 185.236 927.133 187.437C930.388 187.698 933.32 188.152 935.828 188.568C987.208 196.484 947.863 215.448 985.978 218.277C1020.68 220.894 1060.77 216.335 1087.49 220.924C1093.33 221.925 1097.38 223.334 1098.99 225.442C1106.78 235.195 1105.28 246.202 1097.1 256.829C1095.58 258.813 1093.72 261.082 1090.95 263.556C1075.14 277.357 1056.69 290.605 1072.32 300.716C1085.39 309.109 1108.6 308.698 1142.9 306.625C1165.57 305.248 1189.56 302.216 1217.3 300.598C1219.05 300.471 1220.78 300.437 1222.53 300.309C1269.35 297.338 1310.27 289.088 1352.36 286.071C1367.08 284.99 1379.36 285.399 1389.83 287.006C1425.57 292.534 1431.77 293.946 1420.15 311.386C1408.55 328.732 1400.38 330.94 1416.07 343.747C1429.5 354.831 1472.95 346.113 1461.75 361.311C1445.52 383.4 1437.64 395.509 1418.9 407.275" stroke="white" stroke-width="0.635" stroke-miterlimit="10"/>
<path d="M754.748 210.98C754.748 210.98 788.709 200.775 820.943 195.161C839.811 191.859 851.03 191.033 872.16 189.453C898.687 187.441 924.196 185.495 949.05 187.795C952.152 188.106 955.083 188.56 957.88 188.97C1009.05 197.216 969.079 216.471 1005.97 219.697C1039.47 222.617 1079.98 218.096 1106.14 222.603C1111.85 223.561 1115.89 224.969 1117.51 227.077C1125.16 236.787 1123.83 247.651 1116.27 258.08C1114.9 260.014 1113.03 262.283 1110.13 264.712C1094.95 278.222 1076.96 291.322 1092.87 301.427C1106.1 309.771 1129.29 309.453 1163.44 307.43C1185.96 306.102 1209.95 303.07 1237.86 301.309C1239.61 301.182 1241.34 301.148 1243.09 301.02C1290.23 297.857 1331.58 289.645 1372.94 286.689C1387.65 285.608 1400.07 286.061 1410.23 287.767C1445.5 293.536 1451.37 295.141 1439.43 312.773C1427.37 330.268 1419.2 332.476 1435.18 345.277C1449.17 356.443 1493.23 347.527 1482.17 362.769C1466.44 384.523 1458.96 396.764 1439.97 408.348" stroke="white" stroke-width="0.635" stroke-miterlimit="10"/>
<path d="M776.115 211.954C776.115 211.954 809.481 201.853 842.039 196.047C860.925 192.651 872.908 191.577 894.074 189.811C920.772 187.656 946.434 185.661 970.675 188.159C973.777 188.47 976.709 188.924 979.352 189.383C1030.32 197.959 989.87 217.456 1025.67 221.122C1057.95 224.438 1098.74 219.912 1124.5 224.288C1130.21 225.245 1134.12 226.609 1135.6 228.673C1143.11 238.339 1142.25 249.055 1134.87 259.247C1133.5 261.181 1131.65 263.357 1128.89 265.831C1114.35 278.956 1096.8 292 1112.72 302.105C1125.94 310.449 1149.12 310.224 1183.26 308.201C1205.64 306.829 1229.48 303.847 1257.7 301.987C1259.45 301.86 1261.34 301.776 1263.08 301.649C1310.71 298.243 1352.19 290.076 1392.95 287.224C1407.65 286.236 1419.93 286.645 1430.36 288.439C1465.44 294.445 1470.84 296.292 1458.46 313.979C1445.94 331.622 1437.75 333.924 1454.17 346.67C1468.71 357.918 1513.25 348.76 1502.18 364.095C1486.94 385.513 1479.58 397.892 1460.62 409.29" stroke="white" stroke-width="0.635" stroke-miterlimit="10"/>
<path d="M797.059 212.889C797.059 212.889 829.832 202.893 862.577 196.851C881.481 193.361 894.247 191.947 915.277 190.136C942.145 187.838 967.808 185.843 991.743 188.441C994.98 188.795 997.759 189.299 1000.4 189.758C1051.15 198.757 1010.22 218.496 1044.95 222.508C1076.02 226.128 1117.24 221.64 1142.57 225.977C1148.15 226.89 1152.05 228.255 1153.53 230.319C1160.92 239.941 1160.22 250.513 1153.45 260.508C1152.23 262.393 1150.39 264.569 1147.78 266.992C1133.88 279.732 1116.63 292.771 1132.98 302.821C1146.36 311.115 1169.37 311.033 1203.53 308.917C1225.76 307.595 1249.75 304.563 1277.99 302.61C1279.74 302.482 1281.62 302.399 1283.37 302.271C1331.32 298.673 1373.08 290.5 1413.25 287.753C1427.95 286.766 1440.37 287.218 1450.65 289.062C1485.54 295.304 1490.46 297.393 1477.62 315.228C1464.79 332.971 1456.43 335.415 1473.31 348.013C1488.28 359.299 1533.43 349.942 1522.63 365.366C1507.88 386.448 1500.93 398.958 1481.57 410.225" stroke="white" stroke-width="0.635" stroke-miterlimit="10"/>
<path d="M817.441 213.743C817.441 213.743 849.772 203.802 882.553 197.573C901.474 193.99 914.869 192.284 936.07 190.33C962.974 187.846 988.924 185.845 1012.4 188.591C1015.64 188.946 1018.42 189.449 1020.91 189.958C1071.45 199.287 1029.89 219.317 1063.53 223.769C1093.53 227.736 1134.88 223.291 1159.81 227.497C1165.38 228.41 1169.29 229.775 1170.79 231.746C1178.04 241.324 1177.65 251.797 1171.36 261.55C1170.29 263.385 1168.44 265.561 1165.83 267.985C1152.57 280.433 1135.78 293.323 1152.13 303.373C1165.66 311.618 1188.49 311.679 1222.66 309.563C1244.75 308.196 1268.72 305.258 1297.13 303.162C1298.88 303.035 1300.63 302.907 1302.38 302.78C1350.8 298.94 1392.7 290.81 1432.42 288.212C1447.11 287.225 1459.51 287.771 1469.79 289.614C1504.36 296.049 1508.8 298.379 1495.64 316.408C1482.36 334.298 1473.99 336.743 1491.3 349.378C1506.83 360.747 1552.46 351.148 1541.77 366.709C1527.52 387.456 1520.83 400.054 1501.35 411.183" stroke="white" stroke-width="0.635" stroke-miterlimit="10"/>
<path d="M837.556 214.509C837.556 214.509 869.427 204.716 902.261 198.208C921.065 194.487 935.361 192.577 956.443 190.487C983.518 187.859 1009.6 185.902 1032.77 188.747C1035.86 189.152 1038.64 189.655 1041.42 190.158C1091.6 199.866 1049.56 220.138 1082.27 224.981C1111.06 229.25 1152.84 224.844 1177.21 228.968C1182.78 229.881 1186.55 231.202 1188.05 233.173C1195.16 242.707 1195.23 253.032 1189.26 262.592C1188.2 264.427 1186.51 266.554 1184.05 268.928C1171.43 280.991 1155.21 293.87 1171.72 303.871C1185.12 312.072 1208.07 312.27 1242.23 310.154C1264.17 308.837 1288.3 305.849 1316.73 303.66C1318.47 303.532 1320.22 303.405 1322.12 303.227C1371 299.239 1413.06 291.06 1452.18 288.567C1467.01 287.623 1479.27 288.125 1489.52 290.155C1523.9 296.826 1527.71 299.449 1514.11 317.532C1500.36 335.571 1491.98 338.109 1509.59 350.646C1525.55 362.052 1571.79 352.255 1561.23 367.86C1547.63 388.222 1541.05 401.05 1521.47 411.949" stroke="white" stroke-width="0.635" stroke-miterlimit="10"/>
<path d="M856.537 215.204C856.537 215.204 887.815 205.517 920.837 198.772C939.81 194.909 954.736 192.707 975.836 190.523C1002.95 187.709 1029.17 185.796 1051.88 188.789C1054.96 189.194 1057.88 189.741 1060.37 190.25C1110.48 200.331 1067.97 220.845 1099.32 226.041C1126.9 230.613 1168.95 226.294 1192.91 230.287C1198.35 231.156 1202.12 232.477 1203.48 234.404C1210.46 243.894 1210.7 254.076 1205.34 263.438C1204.3 265.18 1202.74 267.35 1200.28 269.724C1188.16 281.453 1172.53 294.227 1189.04 304.227C1202.59 312.378 1225.37 312.719 1259.53 310.603C1281.34 309.243 1305.45 306.348 1334.05 304.016C1335.79 303.888 1337.7 303.711 1339.44 303.584C1388.8 299.354 1430.99 291.218 1469.52 288.83C1484.35 287.886 1496.75 288.432 1506.84 290.512C1541.03 297.419 1544.37 300.283 1530.46 318.465C1516.41 336.604 1508.01 339.235 1525.93 351.673C1542.44 363.161 1589.16 353.122 1578.72 368.864C1565.61 388.891 1559.3 401.807 1539.6 412.568" stroke="white" stroke-width="0.635" stroke-miterlimit="10"/>
<path d="M874.666 215.823C874.666 215.823 905.501 206.19 938.694 199.302C957.686 195.346 973.241 192.853 994.512 190.526C1021.79 187.568 1048.17 185.606 1070.42 188.748C1073.5 189.153 1076.26 189.749 1078.89 190.302C1128.64 200.762 1085.65 221.519 1115.91 227.154C1142.43 232.073 1184.76 227.749 1208.32 231.61C1213.76 232.479 1217.4 233.756 1218.76 235.683C1225.6 245.13 1226.3 255.163 1221.26 264.332C1220.22 266.074 1218.81 268.195 1216.51 270.52C1205.17 281.907 1189.7 294.631 1206.65 304.576C1220.35 312.678 1242.96 313.162 1277.27 310.997C1298.93 309.685 1323.03 306.791 1351.8 304.316C1353.55 304.188 1355.45 304.011 1357.2 303.884C1406.88 299.461 1449.36 291.32 1487.14 289.086C1501.95 288.235 1514.35 288.781 1524.58 290.905C1558.44 298.004 1561.44 301.155 1547.07 319.486C1532.57 337.773 1524.01 340.453 1542.51 352.88C1559.58 364.45 1606.62 354.219 1596.61 369.999C1583.99 389.69 1577.93 402.787 1557.98 413.368" stroke="white" stroke-width="0.635" stroke-miterlimit="10"/>
<path d="M891.639 216.464C891.639 216.464 921.881 206.937 955.262 199.812C974.271 195.763 990.591 193.022 1011.74 190.558C1039.06 187.414 1065.57 185.495 1087.52 188.736C1090.74 189.184 1093.36 189.737 1095.83 190.34C1145.38 201.13 1101.76 222.178 1131.09 228.204C1156.4 233.425 1199 229.189 1222.15 232.918C1227.3 233.793 1231.09 235.021 1232.45 236.948C1239.01 246.4 1240.16 256.285 1235.61 265.212C1234.71 266.904 1233.31 269.025 1231 271.35C1220.31 282.352 1205.28 295.021 1222.23 304.966C1236.09 313.019 1258.68 313.596 1292.7 311.436C1314.22 310.081 1338.31 307.28 1367.25 304.662C1369.15 304.485 1370.9 304.357 1372.8 304.18C1422.83 299.472 1465.58 291.418 1502.76 289.289C1517.57 288.439 1529.97 288.985 1540.18 291.202C1573.86 298.537 1576.25 301.886 1561.42 320.365C1546.45 338.801 1538.03 341.525 1556.68 353.902C1574.33 365.461 1621.83 355.081 1611.8 370.955C1599.68 390.311 1593.89 403.496 1573.69 413.895" stroke="white" stroke-width="0.635" stroke-miterlimit="10"/>
<path d="M907.21 216.948C907.21 216.948 936.857 207.525 970.426 200.165C989.453 196.021 1006.56 192.94 1027.73 190.382C1055.21 187.095 1081.72 185.177 1103.36 188.517C1106.43 189.015 1109.05 189.567 1111.68 190.12C1160.87 201.289 1117.06 222.574 1145.16 228.996C1169.4 234.564 1212.3 230.322 1235.02 234.013C1240.17 234.889 1243.83 236.072 1245.19 237.999C1251.6 247.408 1253.08 257.1 1248.99 265.879C1248.09 267.571 1246.84 269.642 1244.54 271.967C1234.34 282.634 1219.9 295.198 1237.14 305.138C1251 313.19 1273.57 313.861 1307.6 311.701C1328.83 310.351 1353.21 307.544 1382.01 304.883C1383.91 304.706 1385.66 304.578 1387.43 304.357C1437.77 299.456 1480.79 291.491 1517.53 289.416C1532.35 288.566 1544.73 289.205 1554.79 291.472C1588.28 299.044 1590.19 302.634 1575.05 321.213C1559.62 339.797 1551.06 342.571 1570.43 354.887C1588.64 366.528 1636.62 355.906 1626.86 371.867C1615.23 390.888 1609.85 404.204 1589.39 414.422" stroke="white" stroke-width="0.635" stroke-miterlimit="10"/>
<path d="M921.353 217.366C921.353 217.366 950.559 207.999 984.163 200.451C1003.21 196.215 1020.94 192.841 1042.13 190.19C1069.65 186.717 1096.45 184.792 1117.63 188.281C1120.7 188.779 1123.46 189.376 1125.93 189.978C1175.05 201.521 1130.48 223.053 1157.49 229.915C1180.52 235.786 1223.68 231.632 1246 235.192C1251.02 236.023 1254.67 237.207 1256.03 239.133C1262.18 248.454 1264.1 258.091 1260.48 266.628C1259.74 268.271 1258.36 270.298 1256.2 272.573C1246.65 282.855 1232.66 295.365 1249.9 305.304C1263.9 313.307 1286.31 314.121 1320.33 311.961C1341.41 310.661 1365.79 307.854 1394.77 305.049C1396.67 304.872 1398.41 304.745 1400.18 304.524C1451 299.381 1494.16 291.459 1530.31 289.49C1545.26 288.683 1557.64 289.322 1567.68 291.682C1600.84 299.447 1602.41 303.323 1586.82 322.05C1571.08 340.734 1562.5 343.601 1582.03 355.867C1600.8 367.59 1649.25 356.726 1639.61 372.824C1628.47 391.51 1623.21 404.963 1602.79 414.995" stroke="white" stroke-width="0.635" stroke-miterlimit="10"/>
<path d="M933.788 217.725C933.788 217.725 962.399 208.463 996.191 200.679C1015.27 196.256 1033.75 192.728 1054.97 189.89C1082.53 186.23 1109.46 184.349 1130.32 188.031C1133.39 188.529 1136 189.175 1138.47 189.777C1187.23 201.699 1142.47 223.467 1168.12 230.682C1190.08 236.9 1233.54 232.74 1255.29 236.218C1260.31 237.049 1263.97 238.233 1265.06 240.072C1271.07 249.349 1273.29 258.887 1270.15 267.182C1269.41 268.824 1268.18 270.802 1266.02 273.077C1257.1 283.068 1243.41 295.478 1261.09 305.362C1275.12 313.272 1297.49 314.272 1331.67 312.062C1352.61 310.719 1376.99 307.912 1406.12 305.058C1408.02 304.881 1409.92 304.704 1411.68 304.483C1462.83 299.147 1506.28 291.22 1541.83 289.355C1556.62 288.598 1569.16 289.188 1579.18 291.641C1612.16 299.642 1613.25 303.76 1597.06 322.592C1580.87 341.424 1572.13 344.341 1592.39 356.546C1611.58 368.308 1660.65 357.246 1651.28 373.431C1640.64 391.782 1635.78 405.366 1614.95 415.266" stroke="white" stroke-width="0.635" stroke-miterlimit="10"/>
<path d="M944.352 218.076C944.352 218.076 972.368 208.918 1006.48 200.941C1025.58 196.425 1044.69 192.606 1065.93 189.675C1093.66 185.871 1120.59 183.991 1141.14 187.771C1144.06 188.319 1146.82 188.915 1149.43 189.561C1197.83 201.863 1152.59 223.873 1177.31 231.478C1198.35 237.993 1241.94 233.877 1263.14 237.273C1268.02 238.06 1271.67 239.244 1272.77 241.083C1278.64 250.316 1281.33 259.705 1278.37 267.764C1277.78 269.357 1276.4 271.385 1274.55 273.561C1266.28 283.166 1253.17 295.565 1270.71 305.405C1284.89 313.265 1307.09 314.409 1341.13 312.155C1361.92 310.861 1386.3 308.054 1415.6 305.057C1417.5 304.88 1419.26 304.659 1421.16 304.482C1472.79 298.905 1516.37 291.021 1551.33 289.261C1566.26 288.548 1578.64 289.187 1588.66 291.641C1621.45 299.878 1621.93 304.194 1605.42 323.218C1588.77 342.199 1580.16 345.16 1600.58 357.316C1620.48 369.109 1669.87 357.855 1660.48 374.134C1650.34 392.149 1645.6 405.871 1624.8 415.584" stroke="white" stroke-width="0.635" stroke-miterlimit="10"/>
<path d="M952.937 218.278C952.937 218.278 980.512 209.176 1014.66 201.013C1033.78 196.403 1053.67 192.243 1074.93 189.218C1102.69 185.228 1129.76 183.391 1150 187.271C1153.05 187.862 1155.66 188.508 1158.14 189.111C1206.33 201.741 1160.75 224.037 1184.09 232.089C1203.93 238.907 1247.79 234.878 1268.73 238.093C1273.61 238.88 1277.14 240.02 1278.23 241.859C1283.81 251.098 1286.82 260.295 1284.48 268.155C1283.89 269.749 1282.66 271.726 1280.81 273.903C1273.03 283.173 1260.36 295.516 1278.35 305.301C1292.53 313.161 1314.57 314.354 1348.75 312.145C1369.4 310.807 1393.76 308.093 1423.23 304.953C1425.14 304.776 1426.9 304.555 1428.8 304.378C1480.75 298.609 1524.62 290.719 1559.12 289.108C1574.05 288.394 1586.56 289.078 1596.42 291.674C1629.02 300.147 1629.02 304.705 1612.2 323.829C1595.25 342.909 1586.49 345.919 1607.19 358.069C1627.52 369.901 1677.37 358.498 1668.4 374.815C1658.75 392.495 1654.28 406.304 1633.37 415.88" stroke="white" stroke-width="0.635" stroke-miterlimit="10"/>
<path d="M959.363 218.477C959.363 218.477 986.479 209.523 1020.53 201.129C1039.66 196.426 1060.32 192.018 1081.61 188.807C1109.55 184.674 1136.48 182.794 1156.55 186.816C1159.6 187.407 1162.21 188.053 1164.67 188.749C1212.5 201.759 1166.74 224.291 1188.85 232.739C1207.62 239.904 1251.77 235.869 1272.15 239.002C1276.9 239.746 1280.42 240.885 1281.51 242.724C1286.96 251.92 1290.43 260.968 1288.41 268.636C1287.98 270.179 1286.74 272.157 1285.05 274.284C1277.92 283.169 1265.69 295.458 1283.67 305.243C1298 313.053 1320.03 314.339 1354.06 312.179C1374.56 310.891 1399.07 308.128 1428.56 304.895C1430.46 304.717 1432.23 304.497 1434.14 304.226C1486.57 298.214 1530.42 290.418 1564.48 288.862C1579.41 288.149 1591.77 288.882 1601.76 291.522C1634.04 300.188 1633.7 305.032 1616.28 324.26C1598.87 343.488 1590.1 346.592 1611.39 358.637C1632.28 370.551 1682.47 358.862 1673.76 375.36C1664.46 392.661 1660.54 406.646 1639.37 416.041" stroke="white" stroke-width="0.635" stroke-miterlimit="10"/>
<path d="M963.519 218.534C963.519 218.534 990.041 209.685 1024.28 201.055C1043.58 196.209 1064.72 191.559 1086.03 188.254C1114 183.935 1141.06 182.098 1160.83 186.219C1163.73 186.86 1166.34 187.506 1168.79 188.202C1216.56 201.585 1170.03 224.365 1191.21 233.203C1208.9 240.715 1253.19 236.724 1273.3 239.769C1278.05 240.513 1281.43 241.609 1282.39 243.404C1287.7 252.556 1291.48 261.505 1289.94 268.931C1289.5 270.474 1288.28 272.359 1286.73 274.529C1280.09 283.079 1268.45 295.263 1286.73 305.042C1301.21 312.803 1323.07 314.232 1357.25 312.023C1377.61 310.69 1402.11 308.021 1431.77 304.645C1433.53 304.424 1435.59 304.197 1437.35 303.976C1490.1 297.772 1534.38 290.014 1567.7 288.519C1582.62 287.899 1595.13 288.582 1604.97 291.272C1637.06 300.174 1636.24 305.26 1618.37 324.637C1600.5 344.014 1591.72 347.117 1613.31 359.157C1634.77 371.059 1685.42 359.222 1676.84 375.764C1668.04 392.729 1664.23 406.852 1642.95 416.109" stroke="white" stroke-width="0.635" stroke-miterlimit="10"/>
<path d="M964.941 218.599C964.941 218.599 1102.4 172.256 1162.51 185.674C1222.78 199.044 1170.1 223.992 1190.96 233.72C1211.7 243.404 1275.48 235.028 1280.67 244.136C1285.85 253.243 1289.94 262 1288.86 269.277C1287.78 276.555 1263.79 292.564 1287.05 304.85C1310.02 317.141 1351.87 313.85 1431.95 304.408C1512.03 294.967 1573.24 281.991 1605.14 291.129C1637.04 300.267 1635.61 305.551 1617.57 325.071C1599.23 344.597 1590.44 347.793 1612.47 359.778C1634.49 371.762 1685.46 359.733 1677.16 376.362C1668.85 392.992 1665.45 407.246 1643.91 416.323" stroke="white" stroke-width="0.635" stroke-miterlimit="10"/>
</g>
</svg>
